<svg width="485" height="513" viewBox="0 0 485 513" fill="none" xmlns="http://www.w3.org/2000/svg">
<path fill-rule="evenodd" clip-rule="evenodd" d="M379.361 141.077C378.02 141.077 378.899 141.077 378.575 140.8C379.962 140.8 378.945 140.8 379.361 141.077ZM353.241 121.152L353.842 121.291L353.241 121.152ZM312.327 104.278C315.008 104.278 316.996 104.37 319.354 104.555C323.561 104.833 330.311 104.509 333.547 105.526C342.238 108.346 344.365 105.11 349.727 108.022C350.606 108.485 351.438 108.947 352.455 109.271C355.876 110.426 358.465 108.762 363.874 110.981C364.429 111.212 364.983 111.305 365.538 111.443C365.538 116.714 367.11 114.31 371.733 117.315C372.658 117.916 373.49 118.286 374.414 118.887C375.432 119.534 375.986 119.672 377.096 120.227C385.001 124.249 383.707 121.429 386.111 121.429C387.868 121.429 388.469 125.821 389.116 126.838C389.67 127.763 389.948 127.485 390.04 128.872C388.191 128.872 388.006 128.271 386.111 127.208C385.464 126.838 385.186 126.607 384.493 126.191L368.543 116.806C357.956 110.75 360.314 114.495 355.876 114.633C352.825 114.772 356.061 115.974 351.947 114.541C350.282 113.94 347.323 113.801 342.654 112.183C340.713 111.49 338.91 110.842 336.922 110.241C327.722 107.375 325.087 107.699 318.245 105.988L312.327 104.278ZM402.014 60.5439C402.014 63.2715 402.8 65.583 402.8 68.5879C402.8 70.4834 401.69 72.7025 401.228 74.3205C400.488 76.7245 401.089 78.3888 399.009 79.7295C397.114 80.9315 396.143 81.1164 394.895 83.1043C392.907 86.2479 392.444 86.0168 387.96 86.0168C382.551 86.0168 382.274 84.9073 374.969 85.7856C371.964 86.1555 359.39 86.2479 356.57 85.8319C350.097 84.8148 353.333 84.0751 350.883 81.6249C348.109 78.8973 344.319 81.3475 341.545 79.9144C340.389 74.6904 344.873 72.1939 345.983 63.5951C346.722 58.0012 345.798 57.4464 349.589 52.4998C349.959 51.945 350.282 51.7139 350.698 51.2053L358.557 42.098C361.1 39.3704 364.336 35.7644 365.677 32.2047C365.908 31.5574 366.047 31.0027 366.417 30.4941C366.555 30.263 368.682 28.3213 368.913 28.1826C370.624 31.6037 369.422 31.0951 371.456 31.5574C375.755 32.482 373.49 34.9323 375.755 37.7985C377.604 40.0638 378.945 39.5091 380.563 41.2658C382.274 43.115 388.006 46.3511 390.456 47.6456C391.52 48.2004 392.028 48.5702 392.999 49.125C394.617 50.0496 398.408 51.6676 400.303 52.1762C401.367 52.4073 401.089 51.9913 401.598 52.9621C402.8 55.2736 402.014 58.6947 402.014 60.5439ZM353.241 121.152H351.161C351.161 126.515 349.727 125.867 352.501 130.259C353.842 130.259 354.073 130.537 354.905 129.797C355.321 129.427 355.922 128.734 356.385 128.318L356.986 127.578C357.355 127.162 357.494 127.116 357.679 126.653C357.956 126.145 358.188 124.712 358.234 123.926C357.124 123.648 356.338 122.909 355.599 122.261C358.974 122.261 366.37 126.283 369.514 128.225C370.254 128.687 370.439 128.965 371.132 129.566C372.704 130.814 373.074 130.629 374.831 131.461C378.853 133.403 374.831 132.478 380.887 137.24C382.227 138.257 382.828 138.812 383.013 141.077C381.626 141.401 381.257 141.724 380.286 141.493L379.361 141.077C380.702 141.077 380.887 140.754 381.95 140.522C380.748 138.118 380.055 138.257 378.159 136.778C376.818 135.807 376.125 133.588 374.923 132.478C370.531 133.588 371.271 133.033 369.838 129.52C368.821 127.023 365.307 128.502 364.198 130.259C364.429 131.138 365.122 132.201 365.538 133.033C362.857 132.386 363.597 130.305 362.949 128.271C362.626 127.208 362.348 127.347 362.117 126.376C358.927 126.376 357.54 127.532 356.107 129.982C355.044 131.785 355.321 132.894 356.708 134.651C357.587 135.761 361.562 136.593 363.874 137.564C365.446 138.211 366.879 138.627 368.266 139.505C369.514 140.291 370.439 141.539 371.872 142.603L382.597 151.756C384.354 153.189 386.666 154.253 387.914 156.333C388.099 156.657 388.33 157.119 388.515 157.35L392.953 161.465C393.554 162.066 393.97 162.482 394.525 163.129C396.189 164.932 399.934 169.509 400.858 171.589C402.569 175.288 405.851 176.536 407.515 180.049C410.151 185.643 411.861 180.188 413.941 187.076C414.681 189.48 414.265 190.312 415.606 192.254C418.195 196.045 420.229 197.709 421.754 202.564C423.696 208.712 424.99 215.046 426.932 221.194L428.735 226.187C429.059 227.759 423.003 259.935 423.326 261.877C423.696 264.004 424.158 265.575 424.528 267.517C425.222 271.216 424.713 275.792 426.609 279.121C428.781 282.866 427.487 282.819 428.92 283.605C428.92 280.924 427.626 275.792 430.168 274.96C432.202 274.267 433.173 275.654 433.358 277.78C434.052 277.318 433.913 277.642 434.144 276.717H434.93C434.93 278.428 435.531 280.554 435.808 282.357C436.132 284.391 435.947 286.749 435.947 288.876C438.582 287.026 436.456 287.997 439.877 288.043C443.02 288.09 446.719 288.228 449.631 287.35C451.342 286.795 452.174 286.472 453.977 286.934C454.67 288.552 454.485 289.893 454.485 292.204C454.485 294.377 454.763 295.671 454.763 297.983C454.763 301.681 453.977 305.38 453.977 309.078C454.67 308.477 454.948 307.183 455.179 305.888C455.41 304.409 455.549 303.484 455.549 301.866C455.503 299.37 455.734 295.394 455.456 293.083C455.225 291.233 454.809 287.073 456.242 285.455C458.415 282.958 458.138 282.357 458.138 278.612L462.853 275.885C462.761 278.844 461.328 284.854 465.165 285.824L465.627 281.987C465.951 284.299 465.535 284.391 467.522 285.824C467.522 283.698 467.522 281.571 467.522 279.445C467.522 277.226 467.245 275.792 467.245 273.388H468.031L467.8 261.738C467.8 260.167 473.486 230.255 473.486 228.499C473.532 223.228 473.347 217.542 474.272 213.289C475.705 213.289 477.832 213.52 478.988 213.844C479.727 212.318 480.744 209.082 481.022 207.14C481.438 204.228 481.345 202.101 481.345 198.865C480.328 198.588 479.265 197.386 478.109 196.738C476.907 196.137 475.751 195.583 474.827 194.704C472.423 192.532 475.058 191.746 475.058 185.874C473.44 185.874 472.284 185.874 470.759 185.689C469.14 185.505 469.788 186.013 469.834 188.648C469.926 191.283 470.389 194.381 470.666 197.155C471.175 202.009 471.961 210.099 469.834 214.352C466.182 211.763 467.245 200.899 467.245 196.646C465.488 197.108 465.719 197.848 465.904 199.466C466.136 201.546 465.488 202.147 465.165 203.581C462.807 203.026 463.269 202.841 462.021 201.13C461.651 200.622 461.697 200.483 461.004 200.252C461.004 203.673 462.53 206.354 462.53 209.96C459.293 209.128 461.466 209.406 459.663 208.019C459.663 214.953 460.773 215.092 461.235 218.236C461.512 220.131 461.651 221.333 462.113 223.09C462.576 224.8 463.084 226.187 463.084 228.221C460.727 228.221 459.802 227.251 458.507 225.586C455.965 222.211 457.444 217.126 454.717 210.515C454.301 209.498 453.792 209.128 453.468 207.972C452.59 205.014 452.96 200.807 452.544 197.617C452.359 196.415 452.313 195.213 452.359 193.872C452.451 188.926 457.074 188.833 457.074 183.378C456.242 182.962 455.549 182.823 454.717 182.268C452.22 180.558 450.972 181.667 450.047 176.166C449.123 170.618 449.215 153.328 450.001 147.642C450.232 145.746 450.278 142.788 451.157 141.447C451.989 140.199 452.867 137.795 452.914 135.807C453.006 132.155 451.85 131.785 449.631 130.398C448.938 129.936 449.077 130.167 448.614 129.566C447.412 128.086 446.811 123.232 448.892 122.4C449.169 122.261 450.186 122.076 450.371 122.03C454.393 121.383 459.201 120.412 463.038 121.475C464.055 121.753 464.564 121.984 465.581 122.354C466.552 122.677 467.522 122.816 468.632 122.955C471.868 123.417 471.776 123.094 474.133 124.619C474.827 125.081 475.613 125.636 476.584 125.544C477.786 125.451 478.248 124.758 479.219 124.48C478.988 121.475 474.041 118.517 472.099 117.084C471.914 116.945 467.476 111.675 465.673 116.159C465.118 117.5 465.535 118.239 464.101 118.378C463.084 116.067 464.887 114.587 462.113 113.57L460.449 112.83C460.449 105.896 460.68 108.855 455.503 107.329C454.393 107.005 452.313 105.896 451.064 105.942C449.862 105.988 450.51 106.266 449.077 106.636C447.366 107.052 445.193 105.202 444.037 103.954C443.067 102.891 441.772 101.18 442.697 99.2849C443.39 97.898 445.147 97.7131 446.118 96.7885C447.089 95.8639 447.181 94.0146 447.366 92.3041C447.551 90.5474 447.921 88.3745 447.921 86.8489C452.544 86.8489 457.907 84.861 462.298 86.5716C463.177 86.8952 463.223 86.8952 463.454 88.0509C463.639 88.9293 463.593 89.7615 463.593 90.6861C463.593 94.8006 462.807 97.297 464.425 100.348C465.303 101.966 465.766 102.244 465.072 104.416C462.714 111.628 466.968 110.288 468.956 105.249C470.759 100.672 469.926 93.1825 470.574 88.1434C470.759 86.5716 470.897 85.4158 470.99 83.8902C471.082 82.4108 470.296 82.4571 469.603 81.0239C471.128 81.0239 472.515 81.5787 473.486 82.1334C473.486 85.4158 471.082 84.5374 470.897 92.073C470.805 96.4186 470.389 100.163 470.389 104.555C470.389 107.375 470.389 110.241 470.389 113.108C471.313 113.57 472.515 114.079 473.486 114.495C476.584 115.789 481.299 117.269 484.72 117.269C484.027 115.928 482.362 115.234 481.022 114.818C478.988 114.264 473.44 113.339 473.024 110.565C472.7 108.392 473.394 106.404 473.163 104.648C472.562 100.626 472.654 96.7422 473.024 92.674C473.116 91.3795 473.532 88.5132 473.902 87.2188C474.457 85.2309 475.289 84.6761 475.058 81.8561C474.873 79.0822 472.931 80.4229 471.729 79.036C470.712 77.834 470.943 75.7074 470.897 73.5346L470.62 67.4784C470.62 65.1669 470.897 63.6413 470.897 61.0986C470.897 56.8454 470.435 46.1662 471.267 42.3753C471.729 40.2025 472.7 41.0347 472.978 37.5674C471.406 36.4579 471.498 35.9493 469.325 34.8398C467.754 34.0076 466.69 33.1293 466.182 31.2338C465.303 27.7665 465.396 22.6812 465.396 18.1969C456.797 18.1969 463.916 24.2993 461.559 31.8348C461.004 33.5916 459.709 34.285 457.814 34.5162C456.381 34.7011 456.011 34.6549 455.271 33.9614C454.809 33.4991 454.254 32.6207 453.931 32.066C452.96 30.2168 452.914 25.5475 453.33 23.0973C453.607 21.6641 453.653 21.7566 454.485 21.0169C456.335 19.3989 456.52 20.6471 458.184 18.0119C461.328 12.9266 461.096 12.603 459.663 8.53472C458.785 5.99205 458.924 -0.480199 455.04 0.0283352C451.758 0.444408 451.85 5.48352 450.371 8.3498C449.585 9.8754 448.476 10.7538 447.69 12.1407C446.395 14.3135 447.181 15.1919 447.181 17.9195C445.101 18.428 443.205 20.3697 442.604 22.5425C441.032 28.5525 442.096 31.0489 437.935 36.9664C435.022 41.1271 437.288 43.9472 437.75 48.3853C438.074 51.6676 437.75 67.987 437.75 72.4251C437.75 77.5104 438.305 77.1868 435.3 79.4983C432.942 81.3013 433.959 83.659 434.791 86.3866C435.623 89.068 435.623 91.6107 436.04 94.7543C436.502 98.1754 437.334 110.75 435.485 112.645C432.711 115.419 427.117 112.877 424.759 115.373C424.112 116.067 423.372 117.546 422.91 118.378L419.674 124.619C417.547 128.364 418.981 128.826 418.981 132.478C415.143 132.478 413.063 132.571 412.37 129.011C410.983 122.354 416.761 112.183 412.739 106.774C412.277 106.173 412.092 106.081 411.861 105.156C410.428 99.701 414.912 99.1924 414.45 95.3091C414.034 92.073 412.37 90.6398 412.786 86.5716C413.803 76.216 420.09 74.2281 414.08 56.3831C413.572 54.95 413.017 54.2103 412.277 53.0083C411.029 50.7893 409.272 49.125 408.301 46.721C408.024 46.0275 408.07 45.6115 407.33 45.2879C406.868 45.0567 405.759 45.0105 405.065 44.918C402.8 44.5019 403.262 44.2246 402.199 42.699C400.812 40.711 398.639 39.5553 397.206 37.4749C396.328 36.2267 396.143 35.5795 395.079 34.4699C394.201 33.5453 393.323 32.8981 392.259 32.1584C390.225 30.7253 388.237 29.5695 386.342 27.9515C383.984 25.9173 382.69 23.0048 380.471 20.9245C377.373 18.0582 378.252 17.3185 377.235 16.3014C375.709 14.6371 371.594 14.0824 369.422 14.0361C365.446 14.0361 364.336 14.822 361.747 16.4401C357.587 19.0752 356.662 19.2602 353.333 23.2822C350.56 26.5646 346.168 27.7203 343.579 31.1876C343.07 31.8348 342.885 32.066 342.377 32.667C341.591 33.684 341.129 34.7473 340.389 35.8106C340.019 36.3192 339.695 36.6428 339.279 37.1513C335.905 40.9884 332.946 37.6598 331.235 42.1904C329.247 47.5069 323.838 45.7964 322.636 54.0716C322.359 55.9208 322.452 57.0766 321.989 58.6484C321.434 60.775 321.018 60.3589 319.955 61.6996C318.476 63.5951 318.152 75.1527 320.787 79.7757C322.359 82.5033 323.561 83.9364 323.515 87.3575C323.515 90.4549 323.654 94.0146 324.439 96.9734C324.671 97.9442 325.04 98.2678 324.902 98.8226C324.578 100.025 324.162 99.0075 324.07 100.672L317.597 100.025C314.824 99.5623 315.471 97.3895 312.836 97.3432C312.558 98.5452 311.957 98.7764 312.096 100.025C312.188 101.042 312.882 101.828 313.113 102.891C311.634 103.214 309.045 103.723 307.334 103.723C307.473 105.249 308.028 105.526 309.461 105.665C309.322 107.098 308.675 107.329 308.398 108.67L309.969 109.548C310.432 107.745 312.928 108.531 314.315 108.762C315.748 108.993 317.69 109.548 319.169 109.733C320.972 109.964 322.636 109.918 324.439 110.241C329.663 111.074 334.287 112.229 339.418 113.154C342.053 113.616 346.63 115.419 348.849 115.604C348.757 115.65 348.664 115.604 348.664 115.697L347.508 116.159C347.462 118.054 347.37 118.286 349.173 119.672C349.866 120.135 350.19 120.181 351.114 120.366C351.484 120.458 351.623 120.458 352.178 120.643C352.594 120.736 352.316 120.643 352.779 120.828C353.426 121.152 352.964 120.921 353.241 121.152Z" fill="#44AE38"/>
<path fill-rule="evenodd" clip-rule="evenodd" d="M453.884 128.687C454.3 130.213 455.502 130.121 456.704 131.045C457.675 131.785 458.045 133.403 458.646 134.559C459.709 136.732 461.512 138.719 461.512 142.233C457.259 142.14 458.6 138.118 453.468 139.274C448.753 140.337 452.035 148.659 452.821 149.491C453.792 150.554 453.191 149.121 453.699 150.601C453.93 151.248 454.208 153.143 454.346 153.929C454.578 154.9 455.502 160.032 455.641 160.355C456.103 161.187 457.398 160.771 457.398 166.55C457.398 171.312 457.12 175.103 457.12 179.818C468.169 179.818 466.505 182.083 466.505 174.733C466.505 172.93 466.69 170.295 466.413 168.584C465.95 165.302 466.228 145.515 466.228 140.846C466.228 139.228 467.198 137.61 467.753 136.362C468.123 135.437 469.695 131.924 469.556 130.906L469.325 130.49C469.279 130.398 469.14 130.259 469.094 130.167C467.06 127.902 464.887 127.208 464.471 125.59C463.639 125.96 454.809 128.595 453.884 128.687Z" fill="#44AE38"/>
<path fill-rule="evenodd" clip-rule="evenodd" d="M467.983 156.934C467.983 165.302 468.908 168.168 468.261 177.322C468.03 180.881 468.076 180.419 472.976 180.419C473.67 180.419 473.855 180.188 473.855 179.541C473.855 174.086 474.317 146.162 473.577 143.111C472.19 143.435 472.699 143.712 471.266 145.7C468.862 149.121 467.983 151.895 467.983 156.934Z" fill="#44AE38"/>
<path fill-rule="evenodd" clip-rule="evenodd" d="M474.737 122.169C472.333 122.169 470.854 119.164 468.727 121.753C467.525 123.186 466.6 125.128 467.571 126.792C468.773 128.872 471.039 129.982 472.98 131.23C472.379 132.016 471.686 132.155 470.715 132.709C469.744 133.31 470.391 132.617 469.744 133.726C469.467 134.189 469.328 134.559 469.143 135.16C466.693 141.771 466.138 139.829 468.866 144.776C472.61 143.943 470.9 141.031 472.98 139.69C473.35 140.985 474.09 141.077 474.46 142.51H475.014C475.014 140.615 474.136 138.627 474.136 137.148C474.136 134.466 478.297 132.386 474.876 128.271C473.766 126.977 473.304 127.717 472.379 126.422C473.35 125.174 479.221 124.111 482.781 121.753C484.399 120.69 485 120.135 485 118.794C482.827 120.181 477.418 122.169 474.737 122.169Z" fill="#44AE38"/>
<path fill-rule="evenodd" clip-rule="evenodd" d="M453.884 185.782C453.884 189.295 453.514 189.619 455.549 191.514C460.495 195.999 465.026 193.826 465.026 188.879C465.026 187.261 464.101 184.071 462.714 184.071C455.641 184.071 457.028 185.042 453.884 185.782Z" fill="#44AE38"/>
<path d="M142.291 285.27H171.693L178.073 258.965C178.951 255.359 179.368 252.631 179.368 250.736C179.368 248.886 178.859 247.499 177.796 246.482C176.732 245.512 174.19 244.864 170.075 244.541L170.769 242.137H210.527L209.88 244.541C205.996 244.541 203.038 245.558 201.003 247.499C199.015 249.441 197.259 253.324 195.872 259.103L181.124 319.203C180.153 323.132 179.645 325.999 179.645 327.663C179.645 329.373 180.2 330.668 181.263 331.546C182.604 332.748 185.146 333.395 188.752 333.488L188.151 335.892H149.179L150.058 333.488C153.848 333.488 156.622 332.61 158.425 330.899C160.228 329.142 161.892 325.213 163.372 319.11L170.214 291.233H140.996L134.154 319.203C133.137 323.04 132.629 325.906 132.629 327.755C132.629 329.373 133.23 330.76 134.478 331.777C135.634 332.841 138.038 333.395 141.597 333.488L140.996 335.892H102.533L103.18 333.488C106.971 333.488 109.745 332.61 111.501 330.899C113.258 329.142 114.876 325.213 116.356 319.11L131.103 258.965C131.935 255.497 132.398 252.77 132.398 250.782C132.398 248.886 131.889 247.499 130.826 246.482C129.762 245.512 127.266 244.864 123.336 244.541L123.984 242.137H163.048L162.17 244.541C158.564 244.541 155.836 245.465 153.941 247.315C152.092 249.164 150.427 253.093 148.856 259.057L142.291 285.27Z" fill="#F5C609"/>
<path d="M246.401 242.137L252.365 306.674L290.505 242.137H318.659L317.966 244.541C314.082 244.541 311.17 245.512 309.136 247.453C307.148 249.395 305.437 253.232 304.004 258.965L289.257 319.064C288.286 322.901 287.824 325.721 287.824 327.617C287.824 329.327 288.425 330.76 289.58 331.777C290.782 332.841 293.094 333.395 296.561 333.488L296.053 335.892H256.063L256.757 333.488C261.056 333.488 264.2 332.517 266.28 330.575C268.361 328.634 270.071 324.843 271.504 319.064L286.437 258.179L240.622 335.892H238.126L230.914 256.653L215.565 319.064C214.918 321.653 214.641 323.78 214.641 325.49C214.641 327.848 215.288 329.743 216.675 331.13C218.016 332.563 220.327 333.349 223.61 333.488L223.009 335.892H196.519L197.073 333.488C200.263 333.349 202.713 332.563 204.378 331.13C207.383 328.495 209.556 324.473 210.896 319.064L228.186 249.672C226.522 247.546 225.043 246.159 223.748 245.512C222.408 244.864 220.188 244.541 217.091 244.541L217.785 242.137H246.401Z" fill="#F5C609"/>
<path d="M326.84 242.137H358.738C365.858 242.137 370.943 242.599 373.994 243.477C377.97 244.587 381.068 246.714 383.287 249.95C385.506 253.14 386.615 256.746 386.615 260.86C386.615 264.142 385.691 267.563 383.934 270.984C382.177 274.452 379.542 277.318 376.029 279.537C372.515 281.802 367.106 283.883 359.848 285.732C367.43 288.182 372.7 291.326 375.613 295.117C378.571 298.954 380.051 303.392 380.051 308.477C380.051 313.193 378.618 317.908 375.797 322.531C372.931 327.154 369.187 330.529 364.471 332.702C359.756 334.829 351.157 335.892 338.628 335.892H305.157L305.943 333.488C309.18 333.488 311.491 333.164 312.878 332.471C314.311 331.731 315.421 330.714 316.253 329.235C317.131 327.755 318.102 324.704 319.258 320.081L333.404 262.432C334.837 256.514 335.623 252.539 335.623 250.504C335.623 248.886 335.022 247.546 333.867 246.436C332.665 245.373 330.168 244.726 326.239 244.541L326.84 242.137ZM345.054 283.559C350.325 283.467 354.531 282.496 357.583 280.6C360.634 278.751 363.084 275.654 364.933 271.354C366.783 267.055 367.707 263.033 367.707 259.196C367.707 255.636 366.736 252.724 364.841 250.458C362.899 248.239 360.357 247.13 357.167 247.222L353.931 247.361L345.054 283.559ZM343.76 288.829L333.543 330.529C335.485 330.622 336.918 330.668 337.889 330.668C346.626 330.668 352.682 327.802 356.057 322.069C359.478 316.336 361.142 310.188 361.142 303.623C361.142 300.479 360.495 297.706 359.201 295.255C357.86 292.851 356.15 291.187 354.115 290.216C352.081 289.292 348.614 288.829 343.76 288.829Z" fill="#F5C609"/>
<path fill-rule="evenodd" clip-rule="evenodd" d="M235.677 84.8148L236.139 83.2429L226.893 82.2259C223.426 79.1747 222.547 83.1043 217.046 80.0068C213.579 78.0651 210.851 78.8973 206.644 78.7124L207.569 74.5516C219.265 74.0431 218.941 75.2913 232.209 73.6733C235.862 73.211 237.156 73.3034 238.451 70.2522C235.492 68.6342 237.202 69.8361 235.63 69.9286C232.348 67.6171 222.085 66.1377 217.924 66.6925C210.943 67.6633 219.357 69.1889 199.293 70.0673C191.018 70.4371 154.681 77.5104 146.776 81.7636C144.325 83.1043 142.384 85.1846 140.303 86.1092C137.576 87.265 135.357 87.5886 132.444 89.1604C127.96 91.6106 106.417 101.689 106.047 104.833C93.6108 108.069 87.4622 115.327 79.9729 122.215L63.2837 137.98C61.342 139.274 58.8456 141.724 58.1984 143.943C55.0085 145.469 55.6557 146.995 53.2055 149.445C48.6749 153.929 51.4487 152.126 49.9694 157.073C49.091 159.847 42.7574 166.411 40.9082 168.769C36.9324 173.808 33.6963 172.791 29.9516 178.94C27.5476 182.916 23.4794 189.434 22.9708 194.011C22.2774 196.831 20.798 200.807 19.7347 203.581C18.0704 207.926 16.175 208.389 13.9097 211.81C11.4132 215.693 11.8293 218.513 10.8122 222.812C9.84141 227.112 7.85351 229.793 7.57612 234.37L7.80728 236.219C5.31084 238.253 4.38623 245.188 4.47869 248.008C1.24257 252.585 -0.514187 282.866 0.133038 289.477C0.687802 295.348 3.18424 290.309 1.93602 310.003C1.38126 318.602 -0.0981143 321.237 3.2767 329.974C5.26461 335.106 5.07969 343.797 7.94597 348.282C10.9509 352.997 11.968 348.189 16.4061 362.659C18.3478 369.039 20.7055 372.876 23.2944 378.655C24.82 382.168 24.6814 382.862 27.2703 386.052C29.9516 389.38 28.9345 391.738 32.5867 393.726C34.0661 396.685 35.2219 399.643 37.256 402.279C39.0128 404.59 39.0128 403.434 40.1685 406.07C43.081 412.819 41.2318 406.902 46.086 414.345C48.1664 417.535 47.5191 414.853 47.1955 418.968C46.8257 423.961 50.6628 423.129 51.8648 426.734C53.2517 431.774 55.3783 431.496 57.7361 434.917C60.2325 438.523 59.6315 440.881 65.3641 440.28C65.5028 443.192 66.8434 442.591 69.3399 444.995C75.7197 450.913 78.4472 452.346 83.3939 456.738C90.6521 463.164 88.5717 460.344 93.4721 463.534C97.3555 466.123 98.8348 469.498 104.29 470.468C106.509 470.792 116.495 477.911 120.748 479.252C122.412 481.656 124.863 484.014 127.729 484.985C130.549 485.956 135.218 488.082 137.946 487.99C139.24 490.44 138.454 489.33 141.367 490.532C142.43 490.948 143.586 491.549 144.695 491.965C148.579 493.445 149.596 492.243 153.71 492.798C157.085 493.491 160.645 495.387 164.066 496.496C167.672 497.698 171.232 498.761 174.93 499.871C180.524 501.581 192.266 504.401 197.906 504.54L200.588 506.436C201.374 507.083 201.374 507.222 202.391 507.915C210.296 512.862 243.813 513.925 247.835 511.521C248.806 511.521 253.383 511.105 254.4 510.92C257.174 510.458 256.758 509.533 257.867 508.007C264.201 507.545 265.449 508.932 271.32 509.209C280.15 508.562 281.722 507.037 286.253 506.204C291.246 505.234 290.645 508.747 297.024 506.805C298.596 506.343 298.596 506.436 300.399 505.973C303.543 505.234 302.849 504.309 306.409 503.384C311.587 501.997 323.329 499.409 325.41 497.005C328.184 497.559 333.593 494.878 335.211 492.382L331.882 490.81C333.223 490.07 337.753 487.527 338.632 486.603C340.804 484.245 339.972 483.135 343.948 481.564C354.304 480.5 373.998 472.872 377.188 462.563C377.743 462.424 380.1 461.222 381.349 460.76C382.181 460.483 382.967 460.205 383.752 459.789C385.648 458.726 384.169 459.789 385.694 458.402C390.872 459.003 410.843 437.737 415.143 433.16C417.501 430.248 420.737 427.151 422.031 423.868C424.528 422.99 438.674 403.296 440.708 399.828C443.066 395.76 446.857 390.351 448.706 386.283C449.769 383.971 454.531 372.46 455.317 371.674C458.599 370.842 458.877 366.681 460.171 364.092C460.818 362.659 462.02 361.55 462.529 360.486L470.666 333.858C470.943 331.269 470.85 331.13 471.498 328.68C474.965 315.134 472.191 312.869 473.624 307.599C474.364 304.964 475.982 300.849 476.537 298.491C477.138 295.718 476.675 290.54 476.722 287.442C476.86 280.092 464.055 255.543 462.853 252.261C462.575 249.996 462.113 247.823 461.281 246.112C460.264 244.032 458.091 238.623 457.675 236.543C453.745 232.706 456.889 231.319 452.451 229.423C452.127 234.647 452.682 241.906 454.901 245.558L459.524 258.918L460.911 272.88L458.877 271.493L458.553 272.787L455.594 273.712L455.964 284.854L455.779 279.445H452.127C452.081 279.814 451.988 280.184 451.896 280.6C450.555 284.807 448.799 280.369 448.706 288.737C448.66 294.377 450.001 305.657 447.365 310.188L448.29 299.462L448.244 294.701L447.874 285.639L447.458 274.082L448.013 271.262C450.417 274.128 449.585 276.856 450.694 279.861C452.081 276.255 450.047 269.598 449.908 265.437L449.168 259.612C448.475 255.359 444.638 251.66 441.864 248.285C440.755 244.263 441.078 240.842 440.015 236.681C439.368 234.185 436.779 229.007 436.917 227.158C435.669 226.141 435.299 225.956 434.698 224.061C434.375 223.044 434.375 221.934 434.051 220.732C433.358 218.374 432.109 217.311 431.277 215.462C429.197 210.977 430.075 209.128 426.608 204.551C425.036 203.904 419.35 199.605 418.425 197.94C417.177 195.814 417.686 195.305 415.744 193.133C413.895 191.052 413.664 191.746 412.462 189.064C408.486 184.626 405.897 183.424 405.296 177.368L403.4 175.056C402.383 169.832 398.87 165.302 403.308 163.684L405.851 162.898L404.972 160.448C403.955 158.275 402.846 158.136 402.245 157.027C401.043 151.571 400.026 152.727 395.911 150.508C393.6 149.214 391.843 146.81 389.531 145.145L387.22 143.758C381.533 140.43 381.487 135.206 377.003 135.206C375.523 137.656 375.2 137.749 375.246 140.846C378.482 142.926 378.482 139.552 379.083 143.527C377.373 144.544 370.9 144.729 368.82 143.25C366.416 142.51 366.786 142.603 365.676 140.569L358.696 137.148L358.557 135.622C356.153 133.865 357.771 131.369 354.258 128.271C349.45 128.04 353.194 130.675 346.398 128.456C338.863 126.006 335.858 123.325 332.575 122.169C327.86 120.505 327.906 121.475 327.768 116.714C321.526 115.928 329.062 115.096 313.621 114.726C307.888 114.31 308.027 111.49 301.278 111.259C295.915 111.074 291.985 111.813 287.455 110.149C283.063 108.485 277.793 109.363 272.985 109.132C268.454 108.901 264.062 107.976 259.347 108.438C260.04 109.224 259.115 108.577 260.502 109.224L270.95 111.628C289.304 113.801 292.586 116.945 306.64 120.089L308.859 121.799L306.64 121.707C297.718 119.025 290.829 118.101 281.815 116.298C277.284 115.419 273.354 115.096 268.731 114.726C266.281 114.541 257.22 111.86 256.896 114.402L257.867 115.096C262.213 117.962 272.014 115.142 273.031 120.366L272.06 120.736C269.055 121.337 258.653 121.291 256.157 120.597C254.261 120.042 254.215 119.164 251.811 120.366C252.366 126.376 265.865 126.191 268.084 126.468C270.026 126.746 272.06 127.578 273.909 128.133C280.474 130.121 275.99 126.699 285.236 131.739C289.627 134.143 293.187 131.924 293.187 139.089C284.45 139.413 288.056 136.685 278.486 135.807C272.938 135.298 268.639 132.848 263.322 132.247C254.539 131.276 236.694 131.924 228.234 133.449C223.379 125.313 215.705 131.461 207.569 131.692C202.206 131.877 201.374 132.247 196.843 133.865C193.145 135.206 189.215 135.298 185.424 136.315C181.495 137.332 183.668 137.471 176.548 140.291C173.035 141.678 171.047 143.204 167.117 144.498C162.17 146.07 162.586 144.868 158.102 148.243C154.635 150.785 151.26 151.294 150.798 155.085L149.688 158.09L144.187 161.465C137.298 162.805 132.259 168.076 127.775 172.837C123.244 177.692 115.801 180.65 114.091 186.845C110.254 189.896 101.978 199.281 100.915 203.904C98.4188 205.014 95.0439 210.33 94.9053 213.15C91.2531 214.722 90.1435 219.391 87.4159 222.859C85.7979 224.847 83.6713 231.504 82.7467 234.37C80.6663 235.757 82.2381 234 80.8512 236.404C79.7417 238.392 79.1407 243.292 78.6322 244.864C77.9849 246.852 74.379 250.366 72.9458 253.463C70.9117 257.947 71.8825 261.6 71.7901 266.269C71.7438 270.383 69.2936 270.337 68.97 277.503C68.6002 285.917 67.1208 295.995 68.8313 304.27C70.9117 314.256 68.2303 317.585 71.8825 327.802C74.1478 333.996 76.4131 343.289 79.0482 348.79C80.2502 351.24 84.3647 361.272 85.9828 362.705C88.433 364.832 88.0632 362.844 89.1727 366.866C90.7445 372.183 91.6229 371.443 94.6279 375.65C96.4771 378.239 98.7886 384.156 99.5745 384.804C103.412 388.132 100.73 382.908 106.324 392.247C108.173 395.344 111.04 397.286 114.461 398.349C114.784 401.863 120.748 404.96 123.383 407.595C124.446 408.705 132.722 414.206 134.294 414.992C138.917 417.396 154.82 426.919 158.564 427.382L171.047 432.236C171.971 433.345 185.193 437.552 187.828 439.078C195.364 443.47 197.675 443.516 206.552 444.995C217.369 446.752 241.455 449.572 251.719 447.307L271.413 445.504L280.15 444.071L290.413 442.36C295.869 443.285 297.533 441.297 302.156 440.141C304.791 439.494 306.64 440.003 308.628 439.54C310.477 439.124 309.923 438.431 312.835 437.183C314.592 436.397 316.025 436.165 317.643 435.148C318.799 434.409 320.278 432.929 321.711 432.328C325.595 430.71 331.558 434.64 332.113 430.664C334.055 430.34 335.303 429.601 337.014 428.722C339.695 427.382 339.834 427.613 341.359 425.394C345.936 425.44 372.796 404.405 374.922 400.476C377.142 399.736 382.504 393.865 384.585 391.599C386.341 389.704 385.371 390.952 386.203 389.288C388.237 388.132 388.884 385.543 391.704 383.971C390.733 388.132 390.317 384.665 390.317 388.04C393.091 388.132 392.86 387.208 395.125 385.589L397.067 385.497L396.882 387.947L397.298 387.993C395.033 389.658 391.196 395.298 390.132 397.517C390.918 398.626 389.855 397.794 391.242 398.257L396.05 398.488C387.081 411.941 393.045 402.417 388.098 406.902C386.434 408.427 386.388 410.831 384.4 413.281C383.059 414.9 382.782 414.853 381.626 416.518C380.378 418.413 380.378 418.737 378.713 420.447C374.506 424.7 375.431 423.498 369.19 423.822L367.988 427.936L361.377 432.744L356.754 435.241C353.009 436.027 351.391 438.616 348.525 440.28C347.369 440.973 341.405 444.441 340.388 444.626C339.186 444.857 330.125 449.202 327.906 450.173C325.364 451.237 324.023 451.653 321.48 452.531C315.332 454.704 316.996 455.027 316.395 457.2C319.492 457.2 336.921 452.762 343.07 454.796C342.7 456.229 343.671 455.351 340.019 457.339C337.568 458.633 338.031 457.986 336.366 459.928L320.232 465.753L317.967 467.186C318.614 468.758 319.862 469.081 320.879 470.145C316.58 471.717 313.344 473.658 308.628 474.86L298.226 477.449C295.268 478.651 297.348 477.126 295.221 479.345C290.09 479.622 283.571 480.963 278.209 481.61C272.384 482.35 266.374 482.534 260.687 483.274C246.864 485.123 238.358 484.892 224.396 484.337C223.102 483.783 213.44 483.459 210.019 482.812C205.488 481.933 200.264 481.656 195.41 480.916C178.813 478.235 176.086 473.335 171.093 473.381C169.613 471.532 157.917 467.51 154.727 466.215C151.353 464.874 149.18 464.551 145.897 463.534C141.552 462.147 143.355 460.205 138.963 459.835C136.882 457.755 132.537 457.801 129.717 456.461L126.804 455.351C124.77 453.04 125.047 454.242 122.459 452.901C120.286 451.745 114.923 446.798 108.636 443.516C103.643 440.881 106.463 438.569 99.1584 435.703C98.0951 432.837 93.0098 430.849 90.2822 428.815C83.6713 423.822 71.0042 403.203 68.4615 402.047C66.1037 399.227 65.2716 397.378 62.3591 394.743C59.2154 391.831 59.7702 389.658 57.8285 386.514C52.3271 377.453 56.3029 383.555 53.8065 377.73C52.512 374.772 50.8477 371.351 47.7503 370.241L47.4267 367.976C47.4729 360.902 45.8086 358.637 42.5263 353.506C40.7695 350.639 42.3876 352.627 40.3072 351.518C36.9786 348.235 36.2389 336.863 34.8058 334.412C30.5526 327.154 32.1244 322.901 31.1998 314.672C29.9054 302.745 29.8592 306.351 29.8129 292.759C29.7667 285.085 29.7667 277.226 30.0441 269.551C30.4139 265.298 31.6159 261.553 32.4018 257.393C32.9104 254.573 34.4822 247.037 34.436 244.726C40.3534 240.426 40.7695 239.686 43.3584 231.966L48.9985 216.34C49.5533 214.722 50.2005 212.364 50.9402 210.885C52.3733 207.834 52.9281 209.082 53.5753 205.43C53.714 203.812 59.8626 196.045 60.741 193.733C63.9309 192.3 73.5931 176.12 75.997 172.098C78.6322 167.613 76.4593 172.375 82.7929 166.226C87.832 162.713 93.7495 154.761 98.465 151.294C101.84 148.798 103.412 146.948 106.324 144.267C114.553 136.685 123.06 134.004 129.301 129.242C132.121 127.069 137.992 120.921 142.846 119.256C144.834 118.517 146.868 118.332 148.995 117.777C151.445 117.13 152.462 116.066 154.727 115.697C160.691 115.419 163.835 112.183 167.811 109.872C173.173 106.682 164.389 108.623 180.293 104.047C182.743 103.307 182.743 103.168 185.517 102.983L207.707 99.7934C214.781 97.9442 220.467 98.0829 221.068 92.5353V91.5644C221.16 90.27 221.068 90.9634 221.253 90.1775C221.761 87.9122 223.379 88.6981 220.652 86.2479C224.997 86.1555 232.117 86.4791 235.677 84.8148ZM334.471 170.711L334.517 171.358C337.245 175.426 341.59 174.086 344.133 177.183C346.029 181.806 343.902 179.679 347.6 184.441C350.698 188.463 350.051 187.908 355.644 188.093C356.8 189.85 356.708 191.792 359.759 192.069C362.024 192.208 365.26 191.792 368.08 191.977C372.935 197.709 369.745 201.824 373.489 208.573C376.217 213.52 374.506 211.717 378.945 214.583C381.811 216.433 381.025 220.223 382.551 222.535C398.038 222.535 394.802 221.148 396.142 230.672C396.836 235.757 395.772 234.509 394.894 238.484C393.969 242.553 395.68 250.319 397.252 254.064C403.215 254.85 404.834 251.891 404.741 258.965C401.597 260.952 401.505 258.41 400.118 263.911C399.055 268.026 399.101 267.656 399.425 272.14L400.349 272.186C401.181 282.588 399.193 280.647 398.408 284.9C397.39 290.447 399.055 303.068 397.668 306.813C396.512 309.864 396.142 307.969 395.68 312.638C395.264 317.122 392.999 322.485 394.016 326.784L394.201 329.235C391.935 333.95 391.843 338.897 388.93 344.075L384.862 343.843C382.967 346.479 382.088 350.269 380.008 353.321C377.974 356.372 376.124 359.238 374.183 362.289C370.207 368.392 365.122 373.338 361.793 378.701L358.742 382.908C354.812 384.665 343.486 396.546 338.817 399.828C320.093 413.004 298.504 423.36 275.481 426.919C271.598 427.52 262.259 427.335 259.948 429.601H255.325L236.648 429.832C225.691 429.508 217.185 428.63 206.783 426.041C202.668 425.024 183.529 418.737 181.633 418.922C179.877 416.934 175.346 415.963 172.618 414.576C170.122 413.281 166.655 411.109 164.436 410.184C162.448 408.982 156.623 405.792 154.635 405.746C153.433 404.174 148.856 401.354 147.146 401.493C145.296 398.257 145.435 399.875 143.17 397.841C140.904 395.853 142.153 395.899 138.963 394.512L137.483 392.894C136.697 390.906 137.391 391.969 136.235 390.536C136.235 390.536 135.033 389.334 134.895 389.242C133.276 387.67 133.323 387.346 131.15 386.745L128.006 384.942C126.666 382.307 126.342 383.278 124.678 381.198C122.227 377.961 118.714 374.633 115.986 371.628C114.461 369.917 113.536 368.068 111.964 366.219C107.711 361.18 104.66 355.355 101.701 349.484C100.684 347.403 99.4358 345.693 98.6499 343.843C97.4942 341.116 97.7253 340.607 95.6449 338.758L90.3747 319.434C90.3284 316.984 88.4792 311.667 87.9245 308.616C87.1848 304.317 86.0753 300.618 85.8903 296.088C85.5667 286.98 85.5667 276.856 85.9366 267.702C86.029 265.067 89.9586 251.614 91.0681 248.285C93.0098 242.46 97.4017 235.572 98.7424 230.44C100.73 228.36 103.18 223.737 104.983 221.194C106.139 219.53 107.064 217.45 107.988 216.109C109.422 214.121 110.577 213.659 111.456 211.255C115.108 209.868 116.264 209.591 118.529 206.308C120.517 203.488 123.013 201.685 124.539 199.559L126.573 197.894L143.493 184.025C147.377 181.251 159.027 173.762 162.864 173.115C170.446 174.132 185.286 165.209 192.729 161.234C195.78 159.615 198.091 157.027 200.727 154.946C204.795 151.71 206.598 153.975 207.985 148.566C211.591 134.235 226.199 142.002 241.825 141.031C246.495 140.014 251.626 141.678 256.48 141.586C260.549 141.493 259.439 140.707 262.675 140.337C274.649 138.951 275.712 144.175 280.751 146.024C284.958 147.549 289.165 146.902 293.418 149.167C299.336 152.311 299.243 151.34 304.976 153.328C307.935 154.345 307.287 154.946 309.46 156.241C311.263 157.304 313.251 157.581 315.193 158.783C317.551 160.263 316.534 160.401 319.585 161.742C327.86 165.394 332.252 170.11 334.471 170.711ZM450.648 310.881C450.648 310.743 450.74 310.419 451.387 310.743C450.74 310.419 450.648 310.743 450.648 310.881ZM451.387 310.743C451.434 310.743 451.48 310.789 451.526 310.789C451.48 310.789 451.434 310.743 451.387 310.743Z" fill="url(#paint0_linear)"/>
<defs>
<linearGradient id="paint0_linear" x1="151.618" y1="77.9745" x2="325.229" y2="501.369" gradientUnits="userSpaceOnUse">
<stop stop-color="#7A4C94"/>
<stop offset="0.0705882" stop-color="#7A4C94"/>
<stop offset="0.160784" stop-color="#DC0000"/>
<stop offset="0.25098" stop-color="#ECC323"/>
<stop offset="0.329412" stop-color="#7BBB14"/>
<stop offset="0.4" stop-color="#42AF35"/>
<stop offset="0.501961" stop-color="#54A54E"/>
<stop offset="0.588235" stop-color="#1E9BD0"/>
<stop offset="0.678431" stop-color="#233045"/>
<stop offset="0.788235" stop-color="#2E4C98"/>
<stop offset="0.901961" stop-color="#233045"/>
<stop offset="1" stop-color="#233045"/>
</linearGradient>
</defs>
</svg>
