<?xml version="1.0" encoding="UTF-8"?>
<!DOCTYPE svg PUBLIC "-//W3C//DTD SVG 1.1//EN" "http://www.w3.org/Graphics/SVG/1.1/DTD/svg11.dtd">
<!-- Creator: CorelDRAW X7 -->
<svg xmlns="http://www.w3.org/2000/svg" xml:space="preserve" width="42.0577cm" height="39.4132cm" version="1.1" style="shape-rendering:geometricPrecision; text-rendering:geometricPrecision; image-rendering:optimizeQuality; fill-rule:evenodd; clip-rule:evenodd"
viewBox="0 0 16645 15599"
 xmlns:xlink="http://www.w3.org/1999/xlink">
 <defs>
  <style type="text/css">
   <![CDATA[
    .fil1 {fill:#1D2389}
    .fil0 {fill:#44AE38}
    .fil3 {fill:#9996C8}
    .fil2 {fill:#FDFDFF}
    .fil4 {fill:black;fill-rule:nonzero}
    .fil5 {fill:#F5C609;fill-rule:nonzero}
    .fil6 {fill:url(#id0)}
   ]]>
  </style>
  <linearGradient id="id0" gradientUnits="userSpaceOnUse" x1="6103.75" y1="4349.04" x2="9859.09" y2="13507.4">
   <stop offset="0" style="stop-opacity:1; stop-color:#7A4C94"/>
   <stop offset="0.0705882" style="stop-opacity:1; stop-color:#7A4C94"/>
   <stop offset="0.160784" style="stop-opacity:1; stop-color:#DC0000"/>
   <stop offset="0.25098" style="stop-opacity:1; stop-color:#ECC323"/>
   <stop offset="0.329412" style="stop-opacity:1; stop-color:#7BBB14"/>
   <stop offset="0.4" style="stop-opacity:1; stop-color:#42AF35"/>
   <stop offset="0.501961" style="stop-opacity:1; stop-color:#54A54E"/>
   <stop offset="0.588235" style="stop-opacity:1; stop-color:#1E9BD0"/>
   <stop offset="0.678431" style="stop-opacity:1; stop-color:#233045"/>
   <stop offset="0.788235" style="stop-opacity:1; stop-color:#2E4C98"/>
   <stop offset="0.901961" style="stop-opacity:1; stop-color:#233045"/>
   <stop offset="1" style="stop-opacity:1; stop-color:#233045"/>
  </linearGradient>
 </defs>
 <g id="Layer_x0020_1">
  <metadata id="CorelCorpID_0Corel-Layer"/>
  <g id="_632733336">
   <g>
    <path class="fil0" d="M11030 5714c-29,0 -10,0 -17,-6 30,0 8,0 17,6zm-565 -431l13 3 -13 -3zm-885 -365c58,0 101,2 152,6 91,6 237,-1 307,21 188,61 234,-9 350,54 19,10 37,20 59,27 74,25 130,-11 247,37 12,5 24,7 36,10 0,114 34,62 134,127 20,13 38,21 58,34 22,14 34,17 58,29 171,87 143,26 195,26 38,0 51,95 65,117 12,20 18,14 20,44 -40,0 -44,-13 -85,-36 -14,-8 -20,-13 -35,-22l-345 -203c-229,-131 -178,-50 -274,-47 -66,3 4,29 -85,-2 -36,-13 -100,-16 -201,-51 -42,-15 -81,-29 -124,-42 -199,-62 -256,-55 -404,-92l-128 -37zm1940 -946c0,59 17,109 17,174 0,41 -24,89 -34,124 -16,52 -3,88 -48,117 -41,26 -62,30 -89,73 -43,68 -53,63 -150,63 -117,0 -123,-24 -281,-5 -65,8 -337,10 -398,1 -140,-22 -70,-38 -123,-91 -60,-59 -142,-6 -202,-37 -25,-113 72,-167 96,-353 16,-121 -4,-133 78,-240 8,-12 15,-17 24,-28l170 -197c55,-59 125,-137 154,-214 5,-14 8,-26 16,-37 3,-5 49,-47 54,-50 37,74 11,63 55,73 93,20 44,73 93,135 40,49 69,37 104,75 37,40 161,110 214,138 23,12 34,20 55,32 35,20 117,55 158,66 23,5 17,-4 28,17 26,50 9,124 9,164zm-1055 1311l-45 0c0,116 -31,102 29,197 29,0 34,6 52,-10 9,-8 22,-23 32,-32l13 -16c8,-9 11,-10 15,-20 6,-11 11,-42 12,-59 -24,-6 -41,-22 -57,-36 73,0 233,87 301,129 16,10 20,16 35,29 34,27 42,23 80,41 87,42 0,22 131,125 29,22 42,34 46,83 -30,7 -38,14 -59,9l-20 -9c29,0 33,-7 56,-12 -26,-52 -41,-49 -82,-81 -29,-21 -44,-69 -70,-93 -95,24 -79,12 -110,-64 -22,-54 -98,-22 -122,16 5,19 20,42 29,60 -58,-14 -42,-59 -56,-103 -7,-23 -13,-20 -18,-41 -69,0 -99,25 -130,78 -23,39 -17,63 13,101 19,24 105,42 155,63 34,14 65,23 95,42 27,17 47,44 78,67l232 198c38,31 88,54 115,99 4,7 9,17 13,22l96 89c13,13 22,22 34,36 36,39 117,138 137,183 37,80 108,107 144,183 57,121 94,3 139,152 16,52 7,70 36,112 56,82 100,118 133,223 42,133 70,270 112,403l39 108c7,34 -124,730 -117,772 8,46 18,80 26,122 15,80 4,179 45,251 47,81 19,80 50,97 0,-58 -28,-169 27,-187 44,-15 65,15 69,61 15,-10 12,-3 17,-23l17 0c0,37 13,83 19,122 7,44 3,95 3,141 57,-40 11,-19 85,-18 68,1 148,4 211,-15 37,-12 55,-19 94,-9 15,35 11,64 11,114 0,47 6,75 6,125 0,80 -17,160 -17,240 15,-13 21,-41 26,-69 5,-32 8,-52 8,-87 -1,-54 4,-140 -2,-190 -5,-40 -14,-130 17,-165 47,-54 41,-67 41,-148l102 -59c-2,64 -33,194 50,215l10 -83c7,50 -2,52 41,83 0,-46 0,-92 0,-138 0,-48 -6,-79 -6,-131l17 0 -5 -252c0,-34 123,-681 123,-719 1,-114 -3,-237 17,-329 31,0 77,5 102,12 16,-33 38,-103 44,-145 9,-63 7,-109 7,-179 -22,-6 -45,-32 -70,-46 -26,-13 -51,-25 -71,-44 -52,-47 5,-64 5,-191 -35,0 -60,0 -93,-4 -35,-4 -21,7 -20,64 2,57 12,124 18,184 11,105 28,280 -18,372 -79,-56 -56,-291 -56,-383 -38,10 -33,26 -29,61 5,45 -9,58 -16,89 -51,-12 -41,-16 -68,-53 -8,-11 -7,-14 -22,-19 0,74 33,132 33,210 -70,-18 -23,-12 -62,-42 0,150 24,153 34,221 6,41 9,67 19,105 10,37 21,67 21,111 -51,0 -71,-21 -99,-57 -55,-73 -23,-183 -82,-326 -9,-22 -20,-30 -27,-55 -19,-64 -11,-155 -20,-224 -4,-26 -5,-52 -4,-81 2,-107 102,-109 102,-227 -18,-9 -33,-12 -51,-24 -54,-37 -81,-13 -101,-132 -20,-120 -18,-494 -1,-617 5,-41 6,-105 25,-134 18,-27 37,-79 38,-122 2,-79 -23,-87 -71,-117 -15,-10 -12,-5 -22,-18 -26,-32 -39,-137 6,-155 6,-3 28,-7 32,-8 87,-14 191,-35 274,-12 22,6 33,11 55,19 21,7 42,10 66,13 70,10 68,3 119,36 15,10 32,22 53,20 26,-2 36,-17 57,-23 -5,-65 -112,-129 -154,-160 -4,-3 -100,-117 -139,-20 -12,29 -3,45 -34,48 -22,-50 17,-82 -43,-104l-36 -16c0,-150 5,-86 -107,-119 -24,-7 -69,-31 -96,-30 -26,1 -12,7 -43,15 -37,9 -84,-31 -109,-58 -21,-23 -49,-60 -29,-101 15,-30 53,-34 74,-54 21,-20 23,-60 27,-97 4,-38 12,-85 12,-118 100,0 216,-43 311,-6 19,7 20,7 25,32 4,19 3,37 3,57 0,89 -17,143 18,209 19,35 29,41 14,88 -51,156 41,127 84,18 39,-99 21,-261 35,-370 4,-34 7,-59 9,-92 2,-32 -15,-31 -30,-62 33,0 63,12 84,24 0,71 -52,52 -56,215 -2,94 -11,175 -11,270 0,61 0,123 0,185 20,10 46,21 67,30 67,28 169,60 243,60 -15,-29 -51,-44 -80,-53 -44,-12 -164,-32 -173,-92 -7,-47 8,-90 3,-128 -13,-87 -11,-171 -3,-259 2,-28 11,-90 19,-118 12,-43 30,-55 25,-116 -4,-60 -46,-31 -72,-61 -22,-26 -17,-72 -18,-119l-6 -131c0,-50 6,-83 6,-138 0,-92 -10,-323 8,-405 10,-47 31,-29 37,-104 -34,-24 -32,-35 -79,-59 -34,-18 -57,-37 -68,-78 -19,-75 -17,-185 -17,-282 -186,0 -32,132 -83,295 -12,38 -40,53 -81,58 -31,4 -39,3 -55,-12 -10,-10 -22,-29 -29,-41 -21,-40 -22,-141 -13,-194 6,-31 7,-29 25,-45 40,-35 44,-8 80,-65 68,-110 63,-117 32,-205 -19,-55 -16,-195 -100,-184 -71,9 -69,118 -101,180 -17,33 -41,52 -58,82 -28,47 -11,66 -11,125 -45,11 -86,53 -99,100 -34,130 -11,184 -101,312 -63,90 -14,151 -4,247 7,71 0,424 0,520 0,110 12,103 -53,153 -51,39 -29,90 -11,149 18,58 18,113 27,181 10,74 28,346 -12,387 -60,60 -181,5 -232,59 -14,15 -30,47 -40,65l-70 135c-46,81 -15,91 -15,170 -83,0 -128,2 -143,-75 -30,-144 95,-364 8,-481 -10,-13 -14,-15 -19,-35 -31,-118 66,-129 56,-213 -9,-70 -45,-101 -36,-189 22,-224 158,-267 28,-653 -11,-31 -23,-47 -39,-73 -27,-48 -65,-84 -86,-136 -6,-15 -5,-24 -21,-31 -10,-5 -34,-6 -49,-8 -49,-9 -39,-15 -62,-48 -30,-43 -77,-68 -108,-113 -19,-27 -23,-41 -46,-65 -19,-20 -38,-34 -61,-50 -44,-31 -87,-56 -128,-91 -51,-44 -79,-107 -127,-152 -67,-62 -48,-78 -70,-100 -33,-36 -122,-48 -169,-49 -86,0 -110,17 -166,52 -90,57 -110,61 -182,148 -60,71 -155,96 -211,171 -11,14 -15,19 -26,32 -17,22 -27,45 -43,68 -8,11 -15,18 -24,29 -73,83 -137,11 -174,109 -43,115 -160,78 -186,257 -6,40 -4,65 -14,99 -12,46 -21,37 -44,66 -32,41 -39,291 18,391 34,59 60,90 59,164 0,67 3,144 20,208 5,21 13,28 10,40 -7,26 -16,4 -18,40l-140 -14c-60,-10 -46,-57 -103,-58 -6,26 -19,31 -16,58 2,22 17,39 22,62 -32,7 -88,18 -125,18 3,33 15,39 46,42 -3,31 -17,36 -23,65l34 19c10,-39 64,-22 94,-17 31,5 73,17 105,21 39,5 75,4 114,11 113,18 213,43 324,63 57,10 156,49 204,53 -2,1 -4,0 -4,2l-25 10c-1,41 -3,46 36,76 15,10 22,11 42,15 8,2 11,2 23,6 9,2 3,0 13,4 14,7 4,2 10,7z"/>
    <path class="fil0" d="M12642 5446c9,33 35,31 61,51 21,16 29,51 42,76 23,47 62,90 62,166 -92,-2 -63,-89 -174,-64 -102,23 -31,203 -14,221 21,23 8,-8 19,24 5,14 11,55 14,72 5,21 25,132 28,139 10,18 38,9 38,134 0,103 -6,185 -6,287 239,0 203,49 203,-110 0,-39 4,-96 -2,-133 -10,-71 -4,-499 -4,-600 0,-35 21,-70 33,-97 8,-20 42,-96 39,-118l-5 -9c-1,-2 -4,-5 -5,-7 -44,-49 -91,-64 -100,-99 -18,8 -209,65 -229,67z"/>
    <path class="fil0" d="M12947 6057c0,181 20,243 6,441 -5,77 -4,67 102,67 15,0 19,-5 19,-19 0,-118 10,-722 -6,-788 -30,7 -19,13 -50,56 -52,74 -71,134 -71,243z"/>
    <path class="fil0" d="M13093 5305c-52,0 -84,-65 -130,-9 -26,31 -46,73 -25,109 26,45 75,69 117,96 -13,17 -28,20 -49,32 -21,13 -7,-2 -21,22 -6,10 -9,18 -13,31 -53,143 -65,101 -6,208 81,-18 44,-81 89,-110 8,28 24,30 32,61l12 0c0,-41 -19,-84 -19,-116 0,-58 90,-103 16,-192 -24,-28 -34,-12 -54,-40 21,-27 148,-50 225,-101 35,-23 48,-35 48,-64 -47,30 -164,73 -222,73z"/>
    <path class="fil0" d="M12642 6681c0,76 -8,83 36,124 107,97 205,50 205,-57 0,-35 -20,-104 -50,-104 -153,0 -123,21 -191,37z"/>
   </g>
   <g>
    <g>
     <path class="fil1" d="M6852 607l21 -241c49,23 96,153 116,207 -4,2 -9,1 -12,6l-44 16c-26,6 -54,9 -81,12zm1263 -595l4 118 112 12 21 420c-81,-56 -253,-434 -337,-542l-424 12 1 111c123,44 110,-72 122,262 3,90 32,280 -5,350 -228,82 -231,-62 -323,-234 -57,-105 -158,-330 -220,-410 -76,-7 -224,26 -303,45 -34,137 -50,291 -74,432 -45,268 -10,313 -139,363l11 110c78,3 323,-38 380,-70l-20 -106 -92 3c-21,-48 -10,-108 16,-149l219 -43c21,48 50,90 52,138l-96 30 14 116c127,-10 283,-46 411,-70 149,-28 297,-21 448,-29l1 -112c-56,-23 -52,4 -103,-31l-24 -439c120,86 241,449 360,570l289 -6c16,-204 -46,-544 -9,-722l85 -26 1 -115 -378 12z"/>
     <path class="fil1" d="M470 6568c-43,-27 -19,-5 -32,-37l240 -15 -34 129c-40,-1 -131,-51 -174,-77zm120 -1277l95 36 54 -90c66,5 343,105 395,138 -64,43 -439,71 -546,85 -114,15 -104,72 -144,177 -29,74 -77,164 -80,243l98 31 53 -87c66,3 500,168 546,208 6,47 -8,122 -37,158 -110,54 -597,40 -759,76l-69 295c74,74 455,286 587,378 134,92 -25,158 168,155 28,-48 86,-306 83,-364l-108 -29 -28 90c-58,-7 -100,-26 -140,-75l53 -209c49,-14 96,-19 142,-2l-2 108 110 22c41,-123 71,-293 101,-421 23,-100 123,-326 123,-392l-96 -36 -52 82c-68,-5 -380,-122 -426,-157 53,-30 399,-62 490,-73 88,-11 167,6 201,-77 24,-58 61,-155 77,-213 -91,-79 -524,-185 -661,-272l4 -100c-50,-20 -53,-29 -108,-29 -30,48 -123,291 -124,344z"/>
     <path class="fil1" d="M16000 6642l237 20c-29,52 -149,100 -214,116l-23 -136zm-456 -289c-4,64 42,304 60,370 145,29 101,-34 123,-113 51,0 98,-1 136,22l44 223c-57,25 -79,50 -137,50l-29 -94 -102 12c-1,5 -3,7 -3,12 0,5 -3,8 -3,10l3 68c63,339 76,389 102,769l119 -4 11 -102 451 -45c-25,61 -466,306 -556,386l20 287 723 -55 30 97 109 -7 -24 -377 -104 6 -20 111c-75,26 -364,60 -418,36l521 -349 -28 -421 -117 2 -8 108c-75,24 -521,57 -599,45l-24 -167c83,-101 539,-283 678,-376l-51 -299c-90,-47 -670,-94 -744,-134 -62,-34 -23,-30 -55,-82l-108 11z"/>
     <path class="fil1" d="M12567 1703c18,-35 141,-143 183,-159l-71 226c-41,-7 -84,-35 -112,-67zm-479 54l-51 95 318 201 67 -96c-29,-23 -50,-36 -69,-72 100,-143 165,-75 292,28 -5,50 -17,97 -43,131l-105 -35 -55 99c63,36 362,219 400,270 53,70 577,513 619,532 37,-33 211,-234 221,-270 -133,-176 -134,35 -276,27 -65,-3 -132,-67 -170,-112 41,-64 339,-420 392,-448 63,19 31,32 98,47l66 -81c-53,-63 -334,-319 -403,-328l-59 84c106,110 88,35 -89,269 -42,54 -187,233 -241,250 -33,-14 -104,-96 -127,-128 -7,-187 179,-570 177,-748l-256 -161c-101,64 -365,290 -494,390 -120,93 -69,74 -212,56z"/>
     <path class="fil1" d="M2950 1983l204 469 -430 -271c-43,16 -331,264 -370,309l61 82c87,-15 81,-86 151,1 72,89 308,342 329,401l-57 82c25,36 46,61 81,78l281 -240 -68 -89c-117,39 -48,100 -235,-116 -67,-77 -152,-166 -207,-249l591 377c39,-16 126,-96 150,-126 -1,-79 -234,-524 -273,-656l353 402c-20,59 -28,42 -55,90l76 80c62,-50 324,-262 346,-314l-64 -74c-145,62 -36,114 -293,-167 -241,-263 -193,-228 -124,-307l-68 -91c-65,43 -344,278 -379,329z"/>
     <path class="fil1" d="M9112 140l98 35c0,75 -81,506 -105,578l-108 4c-9,48 -20,70 -7,113 60,18 125,25 186,36 59,11 141,36 183,17l20 -98c-96,-45 -113,37 -57,-257 12,-61 42,-259 62,-299 48,88 41,535 83,679 48,33 138,40 199,44 54,-107 277,-569 333,-628 -6,92 -37,214 -54,310 -50,302 -41,192 -143,234l-20 109 453 81 32 -106 -100 -39c-2,-86 76,-504 105,-582l109 -9 15 -103c-52,-29 -435,-94 -491,-85 -50,73 -197,414 -239,435 -60,-133 5,-393 -73,-501l-463 -87 -18 119z"/>
     <path class="fil1" d="M79 7249l104 6 40 -64c76,4 238,71 333,102 125,41 88,19 100,48 -58,25 -387,73 -456,68 -7,-49 3,-56 -18,-91l-110 -7 -34 421 125 9c22,-140 117,-90 212,-58 81,27 193,45 257,94 -36,19 -413,99 -454,78 -48,-25 -8,-74 -144,-48l-34 389 113 9c97,-121 40,-78 357,-141 491,-96 401,-11 436,-352 -82,-44 -243,-66 -305,-117 79,-45 220,-34 317,-61l26 -260c-55,-42 -459,-176 -582,-221 -153,-55 -78,-33 -152,-125l-105 -3 -26 324z"/>
     <path class="fil1" d="M1563 3475c58,131 106,37 164,49 40,8 130,87 147,122l-127 170c-42,-10 -81,-42 -117,-70 -71,-53 -45,-57 -37,-132 -55,-27 -32,-36 -98,-42 -43,43 -255,334 -261,378l78 59c114,-55 -1,-148 283,66 78,59 215,143 276,211l-47 100c46,26 60,46 103,53l274 -373 -85 -65c-59,20 -34,69 -137,-3 -32,-22 -112,-76 -131,-103l131 -185c51,22 91,57 133,86 104,73 51,47 55,139l81 56c43,-37 261,-340 280,-390l-81 -58c-108,59 -34,127 -294,-68 -62,-47 -229,-155 -267,-207l40 -98 -80 -63c-46,32 -245,303 -283,368z"/>
     <path class="fil1" d="M15194 3835c32,113 109,78 -168,230 -74,40 -238,148 -309,162l-68 -75 -97 49c10,53 197,378 235,413l83 -36c18,-91 -24,-83 73,-136 46,-26 86,-58 136,-69l118 190c-56,52 -146,96 -214,121l-56 -45 -93 54c6,50 191,367 232,411 143,-33 67,-77 67,-168 106,-52 431,-272 520,-270l53 75c48,-17 65,-26 97,-64 -17,-48 -201,-373 -234,-403l-91 49c1,68 36,69 -38,114 -41,25 -91,55 -136,60 -33,-41 -98,-148 -107,-197 183,-151 216,-65 247,-55l79 -45c-7,-46 -187,-360 -224,-411l-105 46z"/>
     <path class="fil1" d="M935 11813c-33,-95 -102,-203 38,-245 98,-30 152,76 170,159 -57,33 -143,81 -208,86zm324 -144c-35,-42 -66,-115 -47,-166 82,-124 326,-69 266,-315 -41,-171 -200,-263 -346,-143l22 61c67,14 86,-34 132,10 -47,116 -254,43 -236,266 -94,-50 -174,-137 -298,-20 -93,87 -61,212 -16,316 56,129 188,449 259,557l98 -46c-6,-64 -23,-42 -12,-109 72,-52 464,-236 539,-237l47 74c40,-2 68,-15 100,-40 -4,-68 -162,-362 -196,-463 -63,7 -59,11 -113,40 3,72 67,99 -32,148 -35,17 -134,59 -167,67z"/>
     <path class="fil1" d="M15871 8791c85,-20 479,32 604,36 25,224 -145,231 -319,220 -189,-13 -305,-48 -285,-256zm763 -348l-113 -8c-15,53 0,54 -31,97 -82,11 -497,-25 -583,-46l-10 -101 -119 -15c-26,374 -188,985 364,1010 221,10 370,-76 429,-294 26,-99 75,-551 63,-643z"/>
     <path class="fil1" d="M5957 354l30 107 118 -22 131 396c-52,-18 -306,-276 -371,-332 -109,-93 -82,-104 -231,-51 -82,29 -197,55 -270,91l28 110 113 -16c35,104 181,491 172,569l-80 36 26 116 356 -111c-2,-60 -3,-64 -33,-111l-94 11c-35,-53 -136,-364 -152,-435 114,50 443,465 533,450 43,-7 211,-65 245,-86 -14,-173 -211,-528 -211,-704l73 -19 -26 -119c-55,7 -319,90 -357,120z"/>
     <path class="fil1" d="M15736 5782c138,216 -211,362 -251,77l251 -77zm119 -40c36,-28 162,-65 211,-67 25,61 29,83 19,149 -94,94 -219,60 -230,-82zm91 -456l20 107c-93,43 -498,187 -576,174l-41 -84 -99 30c-4,80 164,560 210,641 61,106 135,181 272,140 163,-48 137,-179 167,-252 1,-2 3,-6 5,-9 191,188 404,69 342,-204 -18,-80 -158,-531 -194,-571l-106 28z"/>
     <path class="fil1" d="M11773 1276c253,84 97,390 -128,228l128 -228zm59 -107c3,-44 66,-158 93,-195 51,5 112,36 121,91 10,69 -31,92 -59,137 -74,8 -94,7 -155,-33zm-254 -402l80 68c-15,80 -210,424 -258,523 -73,-2 -59,-21 -110,-24 -35,44 -40,55 -51,109 312,120 733,489 889,198 91,-170 -31,-208 -76,-300 284,-6 353,-234 120,-387 -91,-59 -448,-250 -540,-278l-54 91z"/>
     <path class="fil1" d="M15368 10741l102 33 41 -79c89,-8 336,93 436,122 -86,83 -527,71 -657,143 -32,47 -87,216 -91,273l675 229 -3 99c46,26 64,32 116,29 26,-87 102,-273 101,-351l-99 -32 -48 98c-71,-1 -309,-95 -402,-117 82,-86 491,-70 619,-141l137 -390 -110 -42 -44 89c-74,-1 -510,-142 -565,-183l5 -66c0,-4 0,-8 0,-12l-2 -23c-1,-3 -1,-8 -2,-12l-106 -28c-20,86 -115,300 -103,361z"/>
     <path class="fil1" d="M14959 11963c-46,-302 373,-112 489,-30 89,62 162,141 92,254 -69,110 -198,47 -292,45l-56 124c55,46 238,143 307,158 61,-64 51,-91 47,-166 134,-67 209,-259 204,-410 -6,-161 -118,-291 -254,-361 -145,-75 -327,-114 -470,-1 -153,121 -177,226 -198,417 -48,26 -59,-21 -122,140 54,68 211,105 283,169l-22 98 99 41c45,-55 205,-357 213,-423l-101 -39c-73,97 -122,52 -219,-16z"/>
     <path class="fil1" d="M752 10145l25 134c92,-4 203,-41 255,55 26,48 68,192 68,245 -71,25 -187,63 -261,63 -7,-171 26,-89 105,-170 -12,-139 -61,-85 -173,-54 -68,18 -162,35 -221,69l16 90c98,7 156,-26 165,104l-212 61c-30,-60 -63,-175 -61,-243 4,-91 76,-118 138,-167l-22 -122c-63,-1 -247,54 -307,80 -2,58 207,802 241,860l96 -17 2 -110c63,-35 388,-120 497,-150 116,-32 70,21 119,79l105 -21c-9,-141 -187,-709 -240,-875l-335 89z"/>
     <path class="fil1" d="M14360 3890c6,111 4,83 78,173 90,-22 177,-154 279,-186l67 57 86 -64c-20,-47 -251,-346 -292,-374l-88 61c29,51 55,85 6,130 -220,204 -369,-113 47,-370 92,-58 203,-107 280,-2 83,114 -19,198 -67,287l84 111c46,-16 247,-180 276,-219 -18,-34 -47,-68 -78,-86 -76,-46 -37,14 -74,-95 -25,-74 -86,-160 -143,-205 -471,-379 -1176,410 -461,782z"/>
     <path class="fil1" d="M16219 10519l104 21 95 -383 -126 -28 -20 91c-86,9 -269,-46 -358,-67 -127,-29 -246,-36 -224,-198 24,-174 169,-120 292,-92 99,22 260,44 340,92l-3 110 118 22 111 -494c-37,-24 -68,-28 -113,-31 -68,134 -31,106 -204,65 -302,-71 -559,-190 -656,223 -104,441 154,445 477,516 202,45 143,7 167,153z"/>
     <path class="fil1" d="M4878 757l49 108c64,-24 19,-28 106,-28 54,99 96,208 146,310 53,110 123,237 -22,309 -156,76 -190,-51 -244,-168 -37,-80 -137,-261 -138,-338l79 -55 -34 -106c-54,11 -436,182 -474,216l40 97c164,2 54,-144 285,343 98,206 206,277 443,178 602,-250 119,-594 91,-869l74 -53c-6,-47 -18,-62 -42,-102 -62,8 -292,122 -359,158z"/>
     <path class="fil1" d="M10505 413l94 43c-25,332 -402,667 125,843 525,175 452,-271 611,-588l107 11 35 -102c-47,-35 -313,-116 -376,-127l-36 106 89 42c-1,86 -72,258 -101,345 -40,120 -61,251 -223,206 -169,-46 -105,-171 -63,-298 23,-72 85,-288 125,-333l98 14c29,-45 37,-57 38,-113 -93,-31 -411,-149 -486,-152l-37 103z"/>
     <path class="fil1" d="M3884 1438c247,-187 368,110 124,209 -43,-32 -121,-156 -124,-209zm-416 110l52 97c69,-4 15,-19 98,-31 52,38 301,428 316,494l-73 69 59 98c74,-37 391,-232 433,-278l-46 -91c-67,17 -46,31 -124,39l-122 -196c86,-87 235,-124 314,-251 83,-134 -23,-329 -172,-340 -154,-12 -589,293 -735,390z"/>
     <path class="fil1" d="M252 8778c55,-19 183,-73 231,-74l9 134c-68,-6 -195,-18 -240,-60zm542 382c27,7 23,10 55,9 42,0 51,-11 71,-23l-6 -98 -23 -259 -117 11c-6,61 10,50 -19,97 -59,-1 -124,-3 -137,-60 -8,-35 -11,-151 -10,-191 41,-28 77,-46 133,-46l25 99 112 -3c9,-71 -22,-457 -44,-522l-111 7c-2,145 -4,117 -315,239 -89,35 -333,120 -395,167l22 294c53,39 479,133 609,167 82,21 145,23 150,112z"/>
     <path class="fil1" d="M794 9201c-61,7 -178,20 -228,47l19 123c193,-2 278,7 276,230 -82,26 -524,107 -592,98l-28 -95 -112 12c-13,95 63,392 77,510 167,-6 100,-18 123,-123 70,-32 503,-107 581,-102l31 87 105 -5c28,-104 -116,-632 -122,-796l-130 14z"/>
     <path class="fil1" d="M1916 3012l79 84c67,-33 27,-41 88,-65 61,27 419,338 442,391l-49 82 79 72c43,-25 307,-327 338,-379 -20,-33 -48,-55 -85,-75 -98,50 -17,146 -300,-114l-215 -194c-21,-63 2,-47 37,-89 -18,-46 -37,-67 -81,-87l-333 374z"/>
     <path class="fil1" d="M14058 2443l55 80c-38,70 -377,391 -443,408l-66 -58c-49,19 -74,44 -87,88l344 361 86 -79c-70,-94 -101,-84 117,-266 77,-64 179,-191 262,-222l82 58 78 -72 -338 -374c-48,21 -67,35 -90,76z"/>
     <path class="fil2" d="M15871 8791c-20,208 96,243 285,256 174,11 344,4 319,-220 -125,-4 -519,-56 -604,-36z"/>
     <path class="fil2" d="M3884 1438c3,53 81,177 124,209 244,-99 123,-396 -124,-209z"/>
     <path class="fil2" d="M15485 5859c40,285 389,139 251,-77l-251 77z"/>
     <path class="fil2" d="M11645 1504c225,162 381,-144 128,-228l-128 228z"/>
     <path class="fil2" d="M935 11813c65,-5 151,-53 208,-86 -18,-83 -72,-189 -170,-159 -140,42 -71,150 -38,245z"/>
     <path class="fil2" d="M15855 5742c11,142 136,176 230,82 10,-66 6,-88 -19,-149 -49,2 -175,39 -211,67z"/>
     <path class="fil2" d="M11832 1169c61,40 81,41 155,33 28,-45 69,-68 59,-137 -9,-55 -70,-86 -121,-91 -27,37 -90,151 -93,195z"/>
     <path class="fil2" d="M252 8778c45,42 172,54 240,60l-9 -134c-48,1 -176,55 -231,74z"/>
     <path class="fil2" d="M6852 607c27,-3 55,-6 81,-12l44 -16c3,-5 8,-4 12,-6 -20,-54 -67,-184 -116,-207l-21 241z"/>
     <path class="fil2" d="M16023 6778c65,-16 185,-64 214,-116l-237 -20 23 136z"/>
     <path class="fil2" d="M438 6531c13,32 -11,10 32,37 43,26 134,76 174,77l34 -129 -240 15z"/>
     <path class="fil2" d="M12567 1703c28,32 71,60 112,67l71 -226c-42,16 -165,124 -183,159z"/>
     <path class="fil3" d="M794 9160l0 41 130 -14c16,-64 16,-81 -10,-139l6 98c-20,12 -29,23 -71,23 -32,1 -28,-2 -55,-9z"/>
    </g>
    <path class="fil4" d="M4036 14575l-20 -64 -165 0 -20 65c-7,25 -14,42 -19,51 -6,9 -14,13 -27,13 -10,0 -19,-4 -27,-14 -8,-9 -12,-20 -12,-32 0,-7 1,-14 3,-21 2,-8 5,-18 9,-31l104 -329c3,-9 7,-20 11,-33 4,-14 8,-25 13,-33 5,-9 11,-16 19,-22 7,-5 17,-8 28,-8 12,0 21,3 29,8 8,6 14,13 18,21 5,9 9,18 12,28 4,9 8,22 13,39l106 326c8,25 13,43 13,54 0,12 -4,23 -12,33 -8,10 -18,14 -29,14 -6,0 -12,-1 -16,-4 -5,-3 -9,-7 -12,-12 -3,-5 -6,-12 -10,-22 -4,-11 -7,-20 -9,-27zm-164 -141l122 0 -61 -209 -61 209z"/>
    <path id="1" class="fil4" d="M4249 14652l7 -21 -94 -292c-5,-17 -8,-29 -8,-37 0,-8 2,-15 5,-22 3,-7 8,-12 14,-17 5,-4 11,-6 18,-6 11,0 19,5 24,13 6,9 11,21 15,37l64 232 61 -215c5,-18 9,-32 13,-42 4,-10 8,-16 12,-20 5,-3 11,-5 19,-5 6,0 11,2 16,6 6,4 10,9 13,15 2,7 4,13 4,21 -1,4 -2,10 -4,18 -1,8 -3,17 -6,25l-99 322c-8,28 -16,50 -25,66 -8,16 -19,29 -32,37 -13,9 -31,13 -54,13 -22,0 -39,-3 -50,-9 -11,-6 -17,-17 -17,-32 0,-11 3,-20 8,-25 5,-6 13,-9 24,-9 4,0 8,1 12,2 4,1 9,2 12,2 9,0 16,-2 20,-5 6,-3 10,-9 14,-17 4,-8 9,-19 14,-35z"/>
    <path id="2" class="fil4" d="M4763 14449c0,28 -3,54 -10,78 -7,23 -17,44 -31,61 -13,17 -29,30 -48,39 -18,9 -39,13 -62,13 -23,0 -44,-4 -62,-13 -18,-10 -34,-23 -48,-40 -13,-17 -23,-37 -30,-61 -7,-23 -11,-49 -11,-77 0,-29 4,-55 11,-79 7,-23 17,-44 30,-60 13,-17 29,-30 48,-39 19,-9 39,-14 62,-14 23,0 44,5 62,14 19,9 35,22 49,39 13,17 23,38 30,61 7,24 10,50 10,78zm-76 0c0,-39 -7,-68 -20,-90 -14,-21 -32,-32 -55,-32 -15,0 -28,5 -39,14 -11,10 -20,24 -26,43 -6,18 -9,40 -9,65 0,25 3,46 9,64 6,19 14,33 25,43 12,10 25,14 40,14 23,0 41,-10 55,-32 13,-21 20,-51 20,-89z"/>
    <path id="3" class="fil4" d="M5144 14632l-124 0c-18,0 -31,-5 -39,-15 -7,-10 -11,-26 -11,-48l0 -381c0,-22 4,-38 12,-48 8,-9 20,-14 38,-14l132 0c19,0 36,1 50,4 15,3 27,9 39,17 9,8 18,17 25,28 8,11 13,23 17,36 4,13 6,27 6,42 0,50 -20,87 -61,111 53,21 80,62 80,124 0,28 -6,53 -17,76 -12,23 -28,40 -48,50 -12,7 -26,11 -42,14 -16,3 -35,4 -57,4zm-6 -225l-86 0 0 148 89 0c56,0 84,-25 84,-75 0,-26 -8,-44 -22,-56 -15,-11 -36,-17 -65,-17zm-86 -204l0 131 76 0c20,0 36,-3 48,-8 11,-5 19,-14 25,-27 5,-10 7,-21 7,-33 0,-25 -7,-42 -22,-51 -14,-8 -37,-12 -67,-12l-67 0z"/>
    <path id="4" class="fil4" d="M5586 14472l-149 0c1,22 4,40 11,57 7,16 16,28 27,37 11,8 23,12 37,12 9,0 17,-1 25,-4 7,-2 14,-7 21,-12 8,-6 14,-12 20,-18 6,-7 14,-16 23,-27 4,-4 9,-6 17,-6 7,0 14,3 19,8 4,5 7,13 7,23 0,8 -3,18 -8,29 -6,12 -14,23 -25,33 -10,10 -24,19 -40,26 -17,7 -36,10 -57,10 -49,0 -86,-17 -113,-51 -27,-35 -41,-82 -41,-141 0,-28 3,-54 10,-77 7,-24 16,-45 29,-62 13,-17 29,-30 47,-39 19,-9 40,-14 62,-14 30,0 56,8 77,24 21,15 37,35 47,60 11,25 16,50 16,75 0,24 -5,40 -16,47 -11,7 -26,10 -46,10zm-149 -54l138 0c-2,-32 -9,-56 -21,-72 -12,-16 -28,-24 -48,-24 -19,0 -34,8 -47,25 -12,16 -19,40 -22,71z"/>
    <path id="5" class="fil4" d="M5787 14504l0 79c0,19 -3,33 -11,43 -7,10 -16,14 -27,14 -11,0 -20,-4 -27,-14 -7,-10 -10,-24 -10,-43l0 -262c0,-43 12,-64 36,-64 13,0 22,5 28,15 5,10 8,25 9,44 9,-19 18,-34 28,-44 9,-10 22,-15 38,-15 16,0 31,5 46,15 15,10 23,23 23,40 0,11 -3,20 -10,28 -6,8 -13,11 -21,11 -2,0 -9,-2 -20,-6 -10,-4 -20,-7 -28,-7 -11,0 -20,4 -27,11 -7,8 -13,18 -17,33 -3,14 -6,31 -8,51 -1,19 -2,43 -2,71z"/>
    <path id="6" class="fil4" d="M6031 14171l0 144c14,-18 29,-33 44,-42 15,-10 33,-15 55,-15 25,0 47,7 66,22 19,15 34,37 44,65 11,28 16,61 16,100 0,29 -3,55 -9,78 -6,24 -14,45 -25,62 -11,18 -25,31 -41,41 -16,10 -33,14 -52,14 -12,0 -23,-1 -33,-5 -10,-3 -19,-8 -26,-13 -7,-6 -14,-12 -19,-18 -5,-6 -11,-15 -20,-27l0 10c0,17 -3,31 -10,40 -7,9 -16,13 -26,13 -11,0 -19,-4 -26,-13 -6,-9 -9,-23 -9,-40l0 -412c0,-19 3,-33 9,-43 6,-10 15,-15 26,-15 11,0 20,5 27,14 6,10 9,23 9,40zm4 280c0,37 7,66 20,86 14,21 32,31 55,31 19,0 35,-11 49,-31 14,-21 21,-50 21,-89 0,-25 -3,-46 -9,-64 -6,-18 -14,-32 -24,-42 -11,-9 -23,-14 -37,-14 -15,0 -27,5 -39,14 -11,10 -20,24 -26,43 -7,18 -10,40 -10,66z"/>
    <path id="7" class="fil4" d="M6508 14587c-18,18 -36,31 -53,40 -17,9 -36,13 -58,13 -19,0 -36,-4 -51,-14 -14,-10 -26,-22 -34,-39 -8,-16 -12,-34 -12,-53 0,-26 7,-48 20,-66 13,-18 31,-30 54,-36 5,-2 17,-5 36,-10 19,-5 35,-9 49,-13 14,-4 28,-9 44,-15 -1,-25 -5,-43 -12,-54 -7,-12 -22,-18 -44,-18 -19,0 -34,4 -44,10 -9,7 -18,17 -25,30 -6,14 -11,22 -14,27 -3,4 -9,6 -19,6 -8,0 -16,-3 -22,-10 -6,-7 -9,-16 -9,-26 0,-17 5,-33 14,-49 9,-15 24,-28 44,-38 20,-10 45,-16 75,-16 33,0 59,5 79,15 19,10 32,25 40,47 8,21 12,49 12,84 0,22 0,41 0,56 -1,16 -1,33 -1,52 0,17 3,36 7,55 5,19 7,32 7,37 0,10 -3,19 -11,26 -7,8 -15,12 -25,12 -7,0 -15,-4 -23,-13 -7,-9 -15,-22 -24,-40zm-5 -136c-11,5 -27,10 -48,16 -21,6 -36,10 -44,12 -8,3 -16,8 -23,16 -8,8 -12,18 -12,32 0,15 5,27 14,37 8,10 20,15 34,15 15,0 28,-4 41,-12 13,-9 22,-19 28,-32 7,-14 10,-38 10,-71l0 -13z"/>
    <path id="8" class="fil4" d="M6926 14326l0 274c0,32 -3,58 -8,81 -6,23 -14,41 -26,56 -12,15 -27,26 -47,33 -19,7 -43,10 -71,10 -26,0 -50,-4 -70,-13 -21,-9 -36,-21 -48,-36 -11,-14 -16,-29 -16,-44 0,-11 3,-21 9,-28 7,-7 14,-11 23,-11 11,0 21,6 29,18 4,7 9,13 13,19 4,6 9,12 14,16 6,5 12,8 19,10 8,3 16,4 26,4 19,0 35,-4 45,-11 11,-6 19,-16 23,-28 5,-12 7,-25 8,-39 1,-14 1,-36 1,-67 -11,20 -25,36 -40,46 -15,11 -33,16 -54,16 -26,0 -48,-8 -67,-24 -19,-16 -34,-39 -44,-68 -10,-29 -15,-62 -15,-100 0,-29 3,-54 9,-77 7,-23 15,-42 27,-58 11,-15 25,-27 40,-35 15,-8 31,-12 49,-12 21,0 40,5 56,15 16,11 30,27 44,49l0 -13c0,-17 3,-29 9,-38 7,-9 15,-14 25,-14 15,0 25,6 30,18 4,12 7,29 7,51zm-220 120c0,38 7,67 20,87 14,19 31,29 52,29 13,0 25,-4 36,-13 11,-8 20,-21 27,-38 7,-17 11,-37 11,-61 0,-39 -7,-69 -21,-90 -13,-21 -31,-32 -53,-32 -22,0 -39,10 -52,31 -13,20 -20,49 -20,87z"/>
    <path id="9" class="fil4" d="M7078 14311l0 272c0,19 -3,33 -11,43 -7,10 -16,14 -27,14 -11,0 -20,-5 -27,-14 -7,-10 -10,-25 -10,-43l0 -269c0,-19 3,-33 10,-43 7,-9 16,-14 27,-14 11,0 20,5 27,14 8,10 11,23 11,40zm-37 -98c-11,0 -20,-4 -27,-12 -8,-8 -11,-19 -11,-34 0,-13 3,-24 11,-33 8,-8 17,-13 27,-13 10,0 18,4 26,12 7,8 11,19 11,34 0,15 -3,26 -11,34 -7,8 -16,12 -26,12z"/>
    <path id="10" class="fil4" d="M7355 14126l108 0c28,0 52,3 72,9 20,7 38,19 54,37 42,45 64,113 64,205 0,31 -2,59 -7,84 -4,25 -11,47 -19,68 -9,20 -21,38 -35,54 -11,12 -23,22 -35,29 -13,7 -27,12 -42,15 -15,3 -32,5 -51,5l-107 0c-15,0 -26,-3 -34,-9 -8,-5 -13,-13 -15,-23 -2,-11 -3,-24 -3,-40l0 -372c0,-22 4,-38 12,-47 7,-10 20,-15 38,-15zm32 81l0 344 63 0c13,0 24,-1 32,-2 8,-1 16,-3 24,-7 8,-3 16,-9 22,-15 27,-29 41,-79 41,-150 0,-50 -6,-88 -18,-112 -12,-25 -27,-41 -45,-48 -18,-7 -39,-10 -64,-10l-55 0z"/>
    <path id="11" class="fil4" d="M7911 14587c-18,18 -36,31 -53,40 -17,9 -36,13 -57,13 -20,0 -37,-4 -52,-14 -14,-10 -26,-22 -34,-39 -8,-16 -12,-34 -12,-53 0,-26 7,-48 20,-66 13,-18 31,-30 54,-36 5,-2 17,-5 36,-10 19,-5 36,-9 49,-13 14,-4 28,-9 44,-15 -1,-25 -5,-43 -12,-54 -7,-12 -22,-18 -44,-18 -19,0 -34,4 -43,10 -10,7 -19,17 -25,30 -7,14 -12,22 -15,27 -3,4 -9,6 -19,6 -8,0 -16,-3 -22,-10 -6,-7 -9,-16 -9,-26 0,-17 5,-33 14,-49 10,-15 24,-28 44,-38 20,-10 45,-16 75,-16 33,0 60,5 79,15 19,10 32,25 40,47 8,21 12,49 12,84 0,22 0,41 0,56 0,16 -1,33 -1,52 0,17 3,36 7,55 5,19 7,32 7,37 0,10 -3,19 -10,26 -8,8 -16,12 -25,12 -8,0 -16,-4 -23,-13 -8,-9 -16,-22 -25,-40zm-5 -136c-11,5 -27,10 -48,16 -21,6 -36,10 -44,12 -8,3 -16,8 -23,16 -8,8 -11,18 -11,32 0,15 4,27 13,37 8,10 20,15 34,15 15,0 29,-4 41,-12 13,-9 22,-19 28,-32 7,-14 10,-38 10,-71l0 -13z"/>
    <path id="12" class="fil4" d="M8126 14309l0 12c14,-22 28,-38 44,-49 16,-10 34,-15 55,-15 20,0 38,6 53,16 16,11 28,26 36,46 5,12 8,24 9,38 2,13 3,30 3,51l0 175c0,19 -4,33 -11,43 -7,10 -16,14 -27,14 -11,0 -20,-5 -28,-14 -7,-10 -10,-25 -10,-43l0 -157c0,-31 -4,-55 -10,-71 -7,-17 -21,-25 -42,-25 -13,0 -26,5 -37,15 -11,10 -19,24 -24,41 -4,14 -6,41 -6,79l0 118c0,19 -3,33 -11,43 -7,10 -16,14 -27,14 -11,0 -20,-5 -27,-14 -7,-10 -11,-25 -11,-43l0 -272c0,-18 4,-32 10,-41 6,-8 15,-13 26,-13 6,0 12,2 18,6 5,4 9,10 13,18 3,7 4,17 4,28z"/>
    <path id="13" class="fil4" d="M8722 14632l-124 0c-18,0 -31,-5 -38,-15 -8,-10 -12,-26 -12,-48l0 -381c0,-22 4,-38 12,-48 8,-9 20,-14 38,-14l132 0c19,0 36,1 50,4 15,3 28,9 39,17 10,8 18,17 25,28 8,11 13,23 17,36 4,13 6,27 6,42 0,50 -20,87 -61,111 54,21 80,62 80,124 0,28 -6,53 -17,76 -12,23 -28,40 -47,50 -13,7 -27,11 -43,14 -16,3 -35,4 -57,4zm-6 -225l-86 0 0 148 89 0c56,0 84,-25 84,-75 0,-26 -7,-44 -22,-56 -14,-11 -36,-17 -65,-17zm-86 -204l0 131 76 0c21,0 36,-3 48,-8 11,-5 19,-14 25,-27 5,-10 7,-21 7,-33 0,-25 -7,-42 -22,-51 -14,-8 -37,-12 -67,-12l-67 0z"/>
    <path id="14" class="fil4" d="M9164 14472l-148 0c0,22 3,40 10,57 7,16 16,28 27,37 11,8 23,12 37,12 9,0 17,-1 25,-4 7,-2 15,-7 22,-12 7,-6 13,-12 19,-18 6,-7 14,-16 23,-27 4,-4 10,-6 17,-6 8,0 14,3 19,8 4,5 7,13 7,23 0,8 -3,18 -8,29 -6,12 -14,23 -25,33 -10,10 -24,19 -40,26 -17,7 -36,10 -57,10 -48,0 -86,-17 -113,-51 -27,-35 -41,-82 -41,-141 0,-28 4,-54 10,-77 7,-24 17,-45 29,-62 13,-17 29,-30 47,-39 19,-9 40,-14 63,-14 29,0 55,8 76,24 21,15 37,35 48,60 10,25 15,50 15,75 0,24 -5,40 -16,47 -11,7 -26,10 -46,10zm-148 -54l137 0c-2,-32 -9,-56 -21,-72 -12,-16 -28,-24 -48,-24 -19,0 -34,8 -46,25 -12,16 -20,40 -22,71z"/>
    <path id="15" class="fil4" d="M9365 14504l0 79c0,19 -3,33 -10,43 -8,10 -17,14 -28,14 -11,0 -20,-4 -27,-14 -7,-10 -10,-24 -10,-43l0 -262c0,-43 12,-64 37,-64 12,0 21,5 27,15 5,10 8,25 9,44 9,-19 18,-34 28,-44 9,-10 22,-15 38,-15 16,0 31,5 46,15 15,10 23,23 23,40 0,11 -3,20 -10,28 -6,8 -13,11 -20,11 -3,0 -10,-2 -21,-6 -10,-4 -20,-7 -28,-7 -11,0 -20,4 -27,11 -7,8 -12,18 -16,33 -4,14 -7,31 -8,51 -2,19 -3,43 -3,71z"/>
    <path id="16" class="fil4" d="M9769 14517c0,26 -5,49 -15,67 -10,19 -25,33 -45,42 -20,10 -44,14 -73,14 -27,0 -50,-5 -70,-15 -19,-10 -33,-23 -43,-39 -9,-15 -14,-31 -14,-47 0,-10 3,-19 9,-26 6,-8 14,-11 23,-11 8,0 14,2 18,7 4,5 8,12 12,21 8,16 17,29 28,37 11,8 26,13 45,13 15,0 27,-5 37,-13 10,-8 14,-18 14,-29 0,-17 -5,-29 -15,-36 -10,-8 -26,-15 -50,-22 -26,-8 -47,-16 -63,-25 -17,-9 -30,-21 -40,-35 -9,-15 -14,-33 -14,-54 0,-19 4,-37 13,-54 9,-16 23,-30 41,-40 17,-10 38,-15 64,-15 19,0 37,3 52,8 16,5 29,12 39,20 11,9 19,18 24,29 6,10 9,20 9,30 0,11 -3,20 -9,26 -6,7 -14,11 -25,11 -8,0 -14,-3 -20,-8 -5,-6 -12,-14 -19,-25 -5,-10 -12,-17 -20,-22 -8,-6 -18,-9 -32,-9 -13,0 -25,4 -34,11 -9,7 -13,16 -13,27 0,10 3,18 10,25 6,6 15,11 27,15 11,5 26,10 46,16 24,7 43,15 58,25 15,10 26,22 34,35 7,14 11,29 11,46z"/>
    <path id="17" class="fil4" d="M9909 14311l0 272c0,19 -3,33 -11,43 -7,10 -16,14 -27,14 -11,0 -20,-5 -27,-14 -7,-10 -10,-25 -10,-43l0 -269c0,-19 3,-33 10,-43 7,-9 16,-14 27,-14 11,0 20,5 27,14 8,10 11,23 11,40zm-37 -98c-11,0 -20,-4 -27,-12 -8,-8 -11,-19 -11,-34 0,-13 3,-24 11,-33 8,-8 17,-13 27,-13 10,0 18,4 26,12 7,8 11,19 11,34 0,15 -4,26 -11,34 -7,8 -16,12 -26,12z"/>
    <path id="18" class="fil4" d="M9988 14583l0 -409c0,-18 3,-33 10,-42 7,-10 16,-15 27,-15 11,0 21,5 28,15 7,9 10,23 10,42l0 409c0,19 -3,33 -10,43 -8,10 -17,14 -28,14 -11,0 -20,-5 -27,-14 -7,-10 -10,-25 -10,-43z"/>
    <path id="19" class="fil4" d="M10333 14587c-18,18 -36,31 -53,40 -17,9 -36,13 -57,13 -20,0 -37,-4 -52,-14 -14,-10 -26,-22 -34,-39 -8,-16 -12,-34 -12,-53 0,-26 7,-48 20,-66 13,-18 31,-30 54,-36 5,-2 17,-5 36,-10 19,-5 36,-9 49,-13 14,-4 28,-9 44,-15 -1,-25 -5,-43 -12,-54 -7,-12 -22,-18 -44,-18 -19,0 -34,4 -43,10 -10,7 -19,17 -26,30 -6,14 -11,22 -14,27 -3,4 -9,6 -19,6 -8,0 -16,-3 -22,-10 -6,-7 -9,-16 -9,-26 0,-17 5,-33 14,-49 10,-15 24,-28 44,-38 20,-10 45,-16 75,-16 33,0 60,5 79,15 19,10 32,25 40,47 8,21 12,49 12,84 0,22 0,41 0,56 0,16 -1,33 -1,52 0,17 3,36 7,55 5,19 7,32 7,37 0,10 -3,19 -11,26 -7,8 -15,12 -24,12 -8,0 -16,-4 -23,-13 -8,-9 -16,-22 -25,-40zm-5 -136c-11,5 -27,10 -48,16 -21,6 -36,10 -44,12 -8,3 -16,8 -23,16 -8,8 -11,18 -11,32 0,15 4,27 13,37 8,10 20,15 34,15 15,0 29,-4 41,-12 13,-9 22,-19 28,-32 7,-14 10,-38 10,-71l0 -13z"/>
    <path id="20" class="fil4" d="M10470 14266l8 0 0 -57c0,-15 0,-27 1,-36 1,-8 2,-16 5,-22 3,-6 8,-12 13,-16 6,-4 12,-6 19,-6 9,0 18,5 26,14 5,6 8,13 10,22 1,8 2,21 2,36l0 65 27 0c11,0 19,3 25,9 6,6 9,15 9,24 0,13 -4,22 -13,27 -8,5 -19,8 -34,8l-14 0 0 173c0,14 0,26 1,34 1,8 3,14 7,19 3,5 9,8 17,8 5,0 11,-1 18,-3 8,-2 14,-3 18,-3 6,0 12,3 17,9 5,6 7,14 7,22 0,16 -7,27 -20,35 -13,8 -32,12 -58,12 -23,0 -41,-5 -53,-14 -12,-10 -20,-24 -24,-42 -4,-17 -6,-40 -6,-70l0 -180 -10 0c-11,0 -19,-4 -25,-10 -6,-6 -9,-15 -9,-25 0,-9 4,-18 9,-24 7,-6 15,-9 27,-9z"/>
    <path id="21" class="fil4" d="M10864 14587l0 -12c-10,14 -19,26 -29,36 -10,10 -21,17 -33,22 -12,4 -25,7 -40,7 -19,0 -35,-5 -50,-14 -14,-10 -25,-23 -33,-39 -10,-20 -14,-49 -14,-87l0 -186c0,-19 3,-33 10,-43 7,-9 16,-14 27,-14 11,0 21,5 28,14 7,10 10,24 10,43l0 150c0,22 2,41 5,55 3,15 8,27 16,35 7,9 18,13 31,13 13,0 25,-5 36,-14 11,-10 20,-22 25,-37 4,-14 6,-43 6,-88l0 -114c0,-19 4,-33 11,-43 7,-9 16,-14 27,-14 12,0 21,5 27,14 7,10 11,24 11,43l0 273c0,17 -4,31 -10,40 -7,9 -15,13 -26,13 -10,0 -19,-4 -25,-14 -7,-9 -10,-22 -10,-39z"/>
    <path id="22" class="fil4" d="M11085 14504l0 79c0,19 -3,33 -10,43 -8,10 -17,14 -28,14 -11,0 -20,-4 -27,-14 -7,-10 -10,-24 -10,-43l0 -262c0,-43 12,-64 37,-64 12,0 21,5 27,15 5,10 8,25 9,44 9,-19 18,-34 28,-44 9,-10 22,-15 38,-15 16,0 31,5 46,15 15,10 23,23 23,40 0,11 -3,20 -10,28 -6,8 -13,11 -20,11 -3,0 -10,-2 -20,-6 -11,-4 -21,-7 -29,-7 -11,0 -20,4 -27,11 -7,8 -12,18 -16,33 -4,14 -7,31 -8,51 -2,19 -3,43 -3,71z"/>
    <path id="23" class="fil4" d="M11437 14587c-18,18 -36,31 -53,40 -17,9 -37,13 -58,13 -19,0 -36,-4 -51,-14 -15,-10 -26,-22 -34,-39 -8,-16 -12,-34 -12,-53 0,-26 6,-48 20,-66 13,-18 31,-30 54,-36 5,-2 17,-5 36,-10 19,-5 35,-9 49,-13 13,-4 28,-9 44,-15 -1,-25 -5,-43 -12,-54 -7,-12 -22,-18 -44,-18 -20,0 -34,4 -44,10 -10,7 -18,17 -25,30 -7,14 -12,22 -15,27 -3,4 -9,6 -18,6 -9,0 -16,-3 -22,-10 -6,-7 -9,-16 -9,-26 0,-17 4,-33 14,-49 9,-15 24,-28 44,-38 20,-10 45,-16 75,-16 33,0 59,5 78,15 19,10 33,25 41,47 7,21 11,49 11,84 0,22 0,41 0,56 0,16 0,33 0,52 0,17 2,36 7,55 5,19 7,32 7,37 0,10 -4,19 -11,26 -7,8 -16,12 -25,12 -8,0 -15,-4 -23,-13 -7,-9 -16,-22 -24,-40zm-5 -136c-11,5 -27,10 -49,16 -21,6 -35,10 -43,12 -9,3 -16,8 -24,16 -7,8 -11,18 -11,32 0,15 4,27 13,37 9,10 20,15 34,15 15,0 29,-4 42,-12 12,-9 22,-19 28,-32 7,-14 10,-38 10,-71l0 -13z"/>
    <path id="24" class="fil4" d="M11657 14174l0 140c10,-14 19,-25 28,-33 10,-8 20,-14 31,-18 11,-4 23,-6 36,-6 19,0 36,5 51,15 15,11 27,25 35,45 5,11 9,23 11,37 2,14 3,30 3,48l0 181c0,19 -4,33 -11,43 -7,10 -16,14 -27,14 -25,0 -38,-19 -38,-57l0 -159c0,-30 -4,-53 -11,-70 -7,-16 -21,-24 -41,-24 -13,0 -26,5 -36,14 -11,10 -19,23 -25,40 -4,14 -6,39 -6,74l0 125c0,19 -3,33 -10,43 -7,9 -16,14 -28,14 -25,0 -37,-19 -37,-57l0 -409c0,-19 3,-33 9,-42 7,-10 16,-15 28,-15 12,0 21,5 28,15 7,9 10,24 10,42z"/>
    <path id="25" class="fil4" d="M12179 14456l0 125c0,20 -4,35 -11,45 -7,9 -17,14 -29,14 -11,0 -20,-5 -27,-14 -8,-10 -11,-25 -11,-45l0 -150c0,-24 -1,-42 -2,-55 -1,-13 -5,-24 -11,-33 -5,-8 -14,-12 -27,-12 -25,0 -41,10 -49,32 -8,21 -12,51 -12,91l0 127c0,20 -3,34 -11,44 -7,10 -16,15 -28,15 -11,0 -20,-5 -28,-15 -7,-10 -11,-24 -11,-44l0 -270c0,-17 4,-31 10,-40 7,-9 15,-14 26,-14 10,0 19,5 26,13 7,9 10,21 10,36l0 9c13,-20 28,-34 43,-43 15,-10 31,-14 50,-14 19,0 35,5 49,14 13,9 25,24 34,43 12,-20 26,-34 41,-43 14,-9 30,-14 48,-14 21,0 39,5 54,15 15,10 26,25 33,44 7,17 10,43 10,80l0 184c0,20 -3,35 -11,45 -7,9 -16,14 -28,14 -12,0 -21,-5 -28,-15 -8,-10 -11,-24 -11,-44l0 -158c0,-21 -1,-37 -2,-49 -2,-12 -6,-23 -12,-31 -6,-8 -15,-12 -27,-12 -10,0 -20,3 -29,11 -9,7 -16,17 -21,29 -6,16 -8,44 -8,85z"/>
    <path id="26" class="fil4" d="M12506 14311l0 272c0,19 -4,33 -11,43 -7,10 -16,14 -28,14 -11,0 -20,-5 -27,-14 -6,-10 -10,-25 -10,-43l0 -269c0,-19 4,-33 10,-43 7,-9 16,-14 27,-14 12,0 21,5 28,14 7,10 11,23 11,40zm-38 -98c-10,0 -19,-4 -27,-12 -7,-8 -11,-19 -11,-34 0,-13 4,-24 11,-33 8,-8 17,-13 27,-13 10,0 19,4 26,12 8,8 12,19 12,34 0,15 -4,26 -11,34 -8,8 -17,12 -27,12z"/>
    <path id="27" class="fil4" d="M3781 15298c0,31 -6,58 -19,83 -13,24 -31,43 -56,57 -24,14 -53,21 -87,21 -40,0 -73,-10 -99,-29 -19,-13 -34,-31 -45,-54 -12,-22 -17,-45 -17,-66 0,-12 3,-23 10,-32 7,-9 16,-13 26,-13 9,0 16,3 22,10 6,7 12,17 16,31 5,16 11,30 17,40 6,11 14,20 25,27 11,7 25,11 43,11 25,0 44,-7 60,-22 15,-14 23,-31 23,-53 0,-16 -4,-30 -13,-40 -8,-11 -19,-19 -32,-24 -13,-6 -30,-12 -52,-18 -29,-9 -54,-19 -73,-30 -20,-11 -36,-27 -47,-47 -12,-19 -18,-44 -18,-73 0,-28 6,-53 19,-74 12,-22 30,-38 53,-50 23,-12 50,-18 81,-18 25,0 47,4 65,12 18,8 34,18 46,31 12,12 20,26 26,40 5,14 8,28 8,41 0,12 -3,23 -10,33 -7,10 -16,15 -26,15 -10,0 -17,-3 -22,-9 -5,-6 -10,-16 -16,-29 -7,-19 -16,-34 -26,-45 -11,-10 -27,-16 -50,-16 -22,0 -39,6 -52,18 -13,11 -19,25 -19,42 0,10 2,19 6,26 5,7 11,14 19,19 7,5 15,9 23,12 8,3 21,8 40,13 23,7 43,14 62,23 19,8 34,17 47,29 14,11 24,26 31,44 7,17 11,39 11,64z"/>
    <path id="28" class="fil4" d="M4057 15290l-148 0c0,22 4,41 10,57 7,16 16,29 27,37 11,8 24,12 37,12 9,0 18,-1 25,-4 8,-2 15,-6 22,-12 7,-6 14,-12 19,-18 6,-7 14,-15 24,-26 3,-5 9,-7 16,-7 8,0 14,3 19,8 5,6 7,13 7,23 0,8 -2,18 -8,30 -5,11 -13,22 -24,32 -11,11 -24,19 -41,26 -16,7 -35,11 -56,11 -49,0 -87,-18 -114,-52 -27,-35 -40,-82 -40,-141 0,-27 3,-53 10,-77 6,-24 16,-44 29,-61 12,-17 28,-31 47,-40 19,-9 39,-13 62,-13 30,0 55,8 76,23 21,16 37,36 48,60 10,25 16,50 16,76 0,23 -6,39 -17,46 -11,7 -26,10 -46,10zm-148 -53l137 0c-1,-33 -8,-57 -21,-73 -12,-16 -28,-24 -47,-24 -19,0 -35,9 -47,25 -12,16 -20,40 -22,72z"/>
    <path id="29" class="fil4" d="M4436 15274l0 125c0,20 -4,35 -11,45 -7,10 -17,15 -29,15 -11,0 -20,-5 -28,-15 -7,-10 -10,-25 -10,-45l0 -150c0,-24 -1,-42 -2,-55 -1,-13 -5,-24 -11,-32 -6,-9 -15,-13 -27,-13 -25,0 -41,11 -49,32 -8,21 -12,51 -12,91l0 127c0,20 -4,35 -11,45 -7,10 -16,15 -28,15 -11,0 -21,-5 -28,-15 -7,-10 -11,-25 -11,-45l0 -269c0,-18 3,-32 10,-41 7,-9 15,-14 26,-14 10,0 19,5 26,13 7,9 10,21 10,36l0 9c13,-20 28,-34 42,-43 15,-9 32,-14 50,-14 20,0 36,5 50,14 13,10 25,24 33,43 13,-19 27,-34 42,-43 14,-9 30,-14 48,-14 21,0 39,5 54,15 15,10 26,25 33,44 7,17 10,44 10,80l0 184c0,20 -4,35 -11,45 -7,10 -16,15 -28,15 -12,0 -21,-5 -28,-15 -8,-10 -11,-25 -11,-45l0 -158c0,-21 -1,-37 -2,-49 -2,-12 -6,-22 -12,-31 -6,-8 -15,-12 -28,-12 -10,0 -19,4 -28,11 -9,7 -16,17 -21,30 -6,16 -8,44 -8,84z"/>
    <path id="30" class="fil4" d="M4971 15267c0,28 -4,54 -11,78 -7,23 -17,44 -30,61 -14,17 -30,30 -48,39 -19,9 -40,14 -63,14 -23,0 -43,-5 -62,-14 -18,-9 -34,-23 -47,-40 -14,-17 -24,-37 -31,-60 -7,-24 -10,-50 -10,-78 0,-28 3,-55 10,-78 7,-24 17,-44 31,-61 13,-17 29,-30 47,-39 19,-9 40,-14 62,-14 23,0 44,5 63,14 18,9 35,23 48,40 13,17 23,37 30,60 7,24 11,50 11,78zm-76 0c0,-38 -7,-68 -21,-90 -14,-21 -32,-32 -55,-32 -15,0 -28,5 -39,15 -11,9 -20,23 -26,42 -6,19 -9,40 -9,65 0,25 3,46 9,65 6,18 15,32 26,42 11,10 24,15 39,15 23,0 41,-11 55,-33 14,-21 21,-51 21,-89z"/>
    <path id="31" class="fil4" d="M5309 15145l0 273c0,32 -3,59 -8,81 -5,23 -14,41 -26,56 -12,15 -27,26 -46,33 -19,7 -43,11 -72,11 -26,0 -49,-5 -70,-14 -20,-9 -36,-21 -47,-35 -11,-15 -17,-29 -17,-45 0,-11 3,-20 10,-28 6,-7 13,-11 22,-11 11,0 21,6 30,19 4,6 8,12 12,18 5,7 9,12 15,17 5,4 11,7 19,10 7,2 16,3 25,3 20,0 35,-4 46,-10 11,-7 18,-17 22,-29 5,-12 7,-25 8,-39 1,-14 1,-36 2,-67 -12,20 -25,36 -41,46 -15,11 -33,16 -54,16 -26,0 -48,-8 -67,-24 -19,-16 -33,-39 -43,-68 -11,-29 -16,-62 -16,-100 0,-29 4,-54 10,-77 6,-23 15,-42 26,-57 12,-16 25,-28 40,-36 15,-8 31,-12 49,-12 22,0 40,5 56,16 16,10 30,26 44,48l0 -13c0,-16 3,-29 10,-38 6,-9 14,-14 25,-14 14,0 24,6 29,18 5,12 7,29 7,52zm-219 119c0,38 6,67 20,87 13,19 30,29 52,29 12,0 24,-4 35,-12 12,-9 21,-22 28,-38 7,-17 10,-38 10,-62 0,-38 -7,-68 -20,-90 -14,-21 -32,-32 -54,-32 -21,0 -39,10 -52,31 -13,20 -19,49 -19,87z"/>
    <path id="32" class="fil4" d="M5563 15406c-18,17 -36,31 -53,39 -17,9 -36,14 -57,14 -20,0 -37,-5 -52,-15 -14,-9 -26,-22 -34,-39 -8,-16 -12,-34 -12,-53 0,-25 7,-47 20,-66 13,-18 31,-30 54,-36 5,-2 17,-5 36,-9 19,-5 35,-10 49,-14 14,-4 28,-9 44,-14 -1,-25 -5,-44 -12,-55 -7,-12 -22,-18 -44,-18 -19,0 -34,4 -44,10 -9,7 -18,17 -25,31 -6,13 -11,22 -14,26 -3,4 -9,6 -19,6 -8,0 -16,-3 -22,-10 -6,-7 -9,-15 -9,-26 0,-17 5,-33 14,-48 10,-16 24,-29 44,-39 20,-10 45,-15 75,-15 33,0 60,5 79,14 19,10 32,26 40,47 8,21 12,49 12,84 0,22 0,41 0,56 0,16 -1,33 -1,52 0,18 3,36 7,55 5,19 7,32 7,37 0,10 -3,19 -11,27 -7,8 -15,12 -24,12 -8,0 -16,-5 -24,-14 -7,-9 -15,-22 -24,-39zm-5 -137c-11,5 -27,11 -48,16 -21,6 -36,10 -44,13 -8,2 -16,8 -23,15 -8,8 -12,19 -12,33 0,14 5,26 14,36 8,10 20,15 34,15 15,0 28,-4 41,-12 13,-8 22,-19 28,-32 7,-14 10,-38 10,-70l0 -14z"/>
    <path id="33" class="fil4" d="M5940 14998l0 177 162 -210c8,-10 14,-17 20,-22 5,-5 12,-8 22,-8 11,0 21,5 28,13 8,9 11,19 11,32 0,15 -6,30 -18,45l-101 117 116 206c8,14 14,27 18,38 4,10 6,21 6,31 0,11 -3,21 -10,29 -7,9 -17,13 -29,13 -12,0 -21,-3 -28,-10 -8,-6 -14,-14 -19,-24 -5,-10 -9,-19 -13,-27l-98 -187 -67 81 0 104c0,21 -4,37 -12,47 -7,11 -17,16 -30,16 -7,0 -13,-3 -20,-7 -6,-5 -11,-11 -15,-19 -3,-6 -4,-14 -5,-22 0,-9 0,-21 0,-37l0 -376c0,-21 3,-37 11,-47 7,-10 17,-16 29,-16 13,0 23,6 30,16 8,10 12,26 12,47z"/>
    <path id="34" class="fil4" d="M6348 15129l0 272c0,19 -3,33 -10,43 -8,10 -17,15 -28,15 -11,0 -20,-5 -27,-15 -7,-10 -10,-24 -10,-43l0 -269c0,-19 3,-33 10,-42 7,-10 16,-15 27,-15 11,0 20,5 28,15 7,9 10,22 10,39zm-37 -97c-11,0 -20,-4 -27,-12 -8,-8 -11,-20 -11,-35 0,-13 4,-24 11,-32 8,-9 17,-13 27,-13 10,0 18,4 26,11 8,8 11,20 11,34 0,15 -3,26 -11,34 -7,8 -16,13 -26,13z"/>
    <path id="35" class="fil4" d="M6431 15084l8 0 0 -57c0,-15 1,-27 1,-35 1,-9 3,-17 6,-23 3,-6 7,-12 13,-16 5,-4 11,-6 18,-6 10,0 18,5 26,14 5,6 9,13 10,22 1,9 2,21 2,37l0 64 28 0c11,0 19,3 24,9 6,7 9,15 9,25 0,12 -4,21 -12,26 -8,5 -20,8 -35,8l-14 0 0 173c0,15 0,26 1,34 1,8 3,14 7,19 4,5 9,8 18,8 4,0 10,-1 18,-3 7,-2 13,-3 17,-3 7,0 12,3 17,9 5,6 7,14 7,23 0,15 -6,26 -20,34 -13,9 -32,13 -57,13 -24,0 -42,-5 -54,-15 -12,-10 -20,-24 -24,-41 -4,-18 -6,-41 -6,-70l0 -181 -10 0c-11,0 -19,-3 -25,-10 -5,-6 -8,-14 -8,-24 0,-10 3,-18 9,-25 6,-6 15,-9 26,-9z"/>
    <path id="36" class="fil4" d="M6820 15406c-19,17 -36,31 -53,39 -18,9 -37,14 -58,14 -19,0 -37,-5 -51,-15 -15,-9 -26,-22 -34,-39 -8,-16 -12,-34 -12,-53 0,-25 6,-47 19,-66 14,-18 32,-30 55,-36 5,-2 16,-5 36,-9 19,-5 35,-10 49,-14 13,-4 28,-9 44,-14 -1,-25 -5,-44 -12,-55 -7,-12 -22,-18 -45,-18 -19,0 -33,4 -43,10 -10,7 -18,17 -25,31 -7,13 -12,22 -15,26 -3,4 -9,6 -18,6 -9,0 -16,-3 -22,-10 -6,-7 -10,-15 -10,-26 0,-17 5,-33 15,-48 9,-16 24,-29 44,-39 20,-10 45,-15 74,-15 34,0 60,5 79,14 19,10 33,26 40,47 8,21 12,49 12,84 0,22 0,41 0,56 0,16 0,33 0,52 0,18 2,36 7,55 5,19 7,32 7,37 0,10 -4,19 -11,27 -7,8 -16,12 -25,12 -8,0 -15,-5 -23,-14 -8,-9 -16,-22 -24,-39zm-5 -137c-11,5 -27,11 -49,16 -21,6 -35,10 -44,13 -8,2 -16,8 -23,15 -7,8 -11,19 -11,33 0,14 4,26 13,36 9,10 20,15 34,15 15,0 29,-4 42,-12 12,-8 22,-19 28,-32 6,-14 10,-38 10,-70l0 -14z"/>
    <path id="37" class="fil4" d="M7251 15374l-65 -323 0 350c0,19 -4,33 -11,43 -7,10 -16,15 -27,15 -11,0 -20,-5 -27,-15 -7,-9 -11,-24 -11,-43l0 -401c0,-22 5,-37 14,-45 9,-7 22,-11 37,-11l26 0c15,0 26,2 33,5 7,4 12,10 16,19 3,9 7,23 11,44l59 277 59 -277c5,-21 8,-35 12,-44 3,-9 8,-15 15,-19 7,-3 18,-5 34,-5l25 0c16,0 28,4 38,11 9,8 13,23 13,45l0 401c0,19 -3,33 -10,43 -7,10 -16,15 -28,15 -11,0 -20,-5 -27,-15 -7,-10 -10,-24 -10,-43l0 -350 -66 323c-4,21 -7,36 -10,46 -3,10 -8,18 -15,26 -7,9 -17,13 -30,13 -9,0 -18,-3 -24,-8 -7,-5 -12,-12 -16,-20 -3,-8 -6,-17 -8,-27 -3,-9 -5,-20 -7,-30z"/>
    <path id="38" class="fil4" d="M7794 15290l-149 0c0,22 4,41 11,57 6,16 15,29 27,37 11,8 23,12 37,12 9,0 17,-1 24,-4 8,-2 15,-6 22,-12 7,-6 14,-12 20,-18 6,-7 13,-15 23,-26 4,-5 9,-7 16,-7 8,0 14,3 19,8 5,6 8,13 8,23 0,8 -3,18 -9,30 -5,11 -13,22 -24,32 -11,11 -24,19 -41,26 -16,7 -35,11 -56,11 -49,0 -87,-18 -114,-52 -27,-35 -40,-82 -40,-141 0,-27 3,-53 10,-77 6,-24 16,-44 29,-61 13,-17 28,-31 47,-40 19,-9 40,-13 62,-13 30,0 55,8 76,23 22,16 38,36 48,60 11,25 16,50 16,76 0,23 -6,39 -16,46 -11,7 -27,10 -46,10zm-149 -53l138 0c-2,-33 -9,-57 -21,-73 -12,-16 -28,-24 -48,-24 -19,0 -35,9 -47,25 -12,16 -19,40 -22,72z"/>
    <path id="39" class="fil4" d="M7989 15128l0 11c13,-22 28,-38 43,-48 16,-11 34,-16 55,-16 20,0 38,6 54,17 15,10 27,26 35,46 5,11 8,23 10,37 1,13 2,30 2,51l0 175c0,19 -4,33 -11,43 -7,10 -16,15 -27,15 -11,0 -20,-5 -27,-15 -7,-10 -11,-24 -11,-43l0 -157c0,-31 -3,-55 -10,-71 -7,-16 -21,-25 -42,-25 -13,0 -26,5 -37,15 -11,10 -19,24 -24,42 -4,14 -6,40 -6,78l0 118c0,19 -3,34 -10,43 -7,10 -17,15 -28,15 -11,0 -20,-5 -27,-15 -7,-10 -10,-24 -10,-43l0 -272c0,-18 3,-31 9,-40 6,-9 15,-14 26,-14 6,0 13,2 18,6 5,4 10,10 13,18 3,8 5,17 5,29z"/>
    <path id="40" class="fil4" d="M8471 15405l0 -10c-10,15 -20,27 -30,36 -10,9 -21,16 -32,21 -12,4 -24,7 -38,7 -18,0 -35,-5 -51,-15 -15,-9 -28,-23 -40,-41 -11,-17 -20,-38 -25,-62 -6,-24 -9,-50 -9,-78 0,-59 11,-105 35,-137 23,-33 53,-50 91,-50 22,0 40,5 55,14 15,9 30,24 44,43l0 -139c0,-19 3,-34 9,-44 7,-10 15,-15 27,-15 11,0 20,5 26,14 7,9 10,23 10,40l0 416c0,18 -4,31 -10,40 -7,9 -16,14 -26,14 -10,0 -19,-5 -26,-14 -7,-10 -10,-23 -10,-40zm-149 -139c0,26 3,48 10,66 6,18 15,31 26,40 11,9 23,14 36,14 14,0 26,-5 37,-13 11,-9 19,-22 26,-40 7,-18 10,-40 10,-67 0,-25 -3,-46 -10,-64 -7,-18 -15,-32 -27,-42 -11,-9 -23,-14 -36,-14 -14,0 -27,5 -38,15 -10,10 -19,24 -25,42 -6,18 -9,39 -9,63z"/>
    <path id="41" class="fil4" d="M8810 15406c-18,17 -36,31 -53,39 -17,9 -36,14 -57,14 -20,0 -37,-5 -52,-15 -14,-9 -26,-22 -34,-39 -8,-16 -12,-34 -12,-53 0,-25 7,-47 20,-66 13,-18 31,-30 54,-36 5,-2 17,-5 36,-9 19,-5 36,-10 49,-14 14,-4 29,-9 44,-14 0,-25 -4,-44 -12,-55 -7,-12 -21,-18 -44,-18 -19,0 -34,4 -43,10 -10,7 -18,17 -25,31 -7,13 -12,22 -15,26 -3,4 -9,6 -19,6 -8,0 -15,-3 -22,-10 -6,-7 -9,-15 -9,-26 0,-17 5,-33 14,-48 10,-16 24,-29 44,-39 20,-10 45,-15 75,-15 33,0 60,5 79,14 19,10 32,26 40,47 8,21 12,49 12,84 0,22 0,41 0,56 0,16 0,33 -1,52 0,18 3,36 7,55 5,19 8,32 8,37 0,10 -4,19 -11,27 -8,8 -16,12 -25,12 -8,0 -16,-5 -23,-14 -8,-9 -16,-22 -25,-39zm-5 -137c-11,5 -27,11 -48,16 -21,6 -36,10 -44,13 -8,2 -16,8 -23,15 -8,8 -11,19 -11,33 0,14 4,26 13,36 8,10 20,15 34,15 15,0 29,-4 41,-12 13,-8 22,-19 28,-32 7,-14 10,-38 10,-70l0 -14z"/>
    <path id="42" class="fil4" d="M9019 15128l0 12c15,-22 29,-38 45,-48 15,-11 32,-16 52,-16 23,0 45,8 64,23 20,14 35,36 47,65 11,29 17,63 17,102 0,29 -3,56 -10,80 -6,24 -16,45 -27,61 -12,17 -25,29 -41,38 -15,9 -32,14 -50,14 -22,0 -40,-6 -55,-17 -14,-10 -28,-26 -42,-47l0 141c0,42 -12,63 -36,63 -14,0 -24,-6 -28,-16 -5,-11 -7,-27 -7,-47l0 -407c0,-18 3,-31 9,-40 6,-9 15,-14 26,-14 11,0 19,5 26,14 7,9 10,22 10,39zm149 138c0,-25 -3,-47 -9,-64 -7,-18 -15,-32 -26,-42 -11,-9 -23,-14 -36,-14 -21,0 -38,10 -53,31 -14,20 -21,50 -21,90 0,38 7,67 21,88 15,20 32,31 53,31 13,0 24,-5 35,-14 11,-9 20,-22 26,-41 7,-18 10,-40 10,-65z"/>
    <path id="43" class="fil4" d="M9496 15406c-18,17 -36,31 -53,39 -17,9 -36,14 -57,14 -20,0 -37,-5 -52,-15 -14,-9 -26,-22 -34,-39 -8,-16 -12,-34 -12,-53 0,-25 7,-47 20,-66 13,-18 31,-30 54,-36 5,-2 17,-5 36,-9 19,-5 36,-10 49,-14 14,-4 28,-9 44,-14 -1,-25 -5,-44 -12,-55 -7,-12 -22,-18 -44,-18 -19,0 -34,4 -43,10 -10,7 -19,17 -26,31 -6,13 -11,22 -14,26 -3,4 -9,6 -19,6 -8,0 -16,-3 -22,-10 -6,-7 -9,-15 -9,-26 0,-17 5,-33 14,-48 10,-16 24,-29 44,-39 20,-10 45,-15 75,-15 33,0 60,5 79,14 19,10 32,26 40,47 8,21 12,49 12,84 0,22 0,41 0,56 0,16 -1,33 -1,52 0,18 3,36 7,55 5,19 7,32 7,37 0,10 -3,19 -11,27 -7,8 -15,12 -24,12 -8,0 -16,-5 -23,-14 -8,-9 -16,-22 -25,-39zm-5 -137c-11,5 -27,11 -48,16 -21,6 -36,10 -44,13 -8,2 -16,8 -23,15 -8,8 -12,19 -12,33 0,14 5,26 14,36 8,10 20,15 34,15 15,0 29,-4 41,-12 13,-8 22,-19 28,-32 7,-14 10,-38 10,-70l0 -14z"/>
    <path id="44" class="fil4" d="M9633 15084l8 0 0 -57c0,-15 0,-27 1,-35 1,-9 2,-17 5,-23 3,-6 8,-12 13,-16 6,-4 12,-6 19,-6 9,0 18,5 26,14 5,6 8,13 10,22 1,9 2,21 2,37l0 64 27 0c11,0 19,3 25,9 6,7 9,15 9,25 0,12 -5,21 -13,26 -8,5 -19,8 -34,8l-14 0 0 173c0,15 0,26 1,34 1,8 3,14 7,19 3,5 9,8 17,8 5,0 11,-1 18,-3 8,-2 14,-3 18,-3 6,0 12,3 17,9 5,6 7,14 7,23 0,15 -7,26 -20,34 -13,9 -32,13 -58,13 -23,0 -41,-5 -53,-15 -12,-10 -20,-24 -24,-41 -4,-18 -6,-41 -6,-70l0 -181 -10 0c-11,0 -19,-3 -25,-10 -6,-6 -9,-14 -9,-24 0,-10 4,-18 9,-25 7,-6 15,-9 27,-9z"/>
    <path id="45" class="fil4" d="M10088 15234l-29 0 0 162c0,22 -4,37 -11,47 -8,11 -18,16 -30,16 -13,0 -23,-6 -31,-16 -7,-11 -10,-26 -10,-47l0 -389c0,-22 4,-38 12,-48 8,-10 20,-15 38,-15l134 0c19,0 35,1 48,3 13,2 25,6 35,12 13,6 24,16 34,28 10,13 17,27 23,44 5,16 7,34 7,52 0,38 -8,68 -26,91 -17,22 -43,38 -77,48 14,9 28,24 42,42 13,19 25,39 35,61 11,21 19,40 25,57 5,17 8,29 8,36 0,6 -1,13 -5,19 -3,7 -8,12 -14,16 -6,4 -13,6 -20,6 -10,0 -17,-3 -24,-8 -6,-6 -11,-13 -16,-21 -4,-8 -11,-21 -18,-37l-33 -68c-12,-25 -23,-44 -32,-57 -10,-13 -19,-22 -29,-27 -9,-5 -21,-7 -36,-7zm47 -213l-76 0 0 139 74 0c20,0 36,-2 50,-6 13,-4 24,-12 31,-22 7,-10 11,-24 11,-42 0,-14 -3,-27 -9,-37 -6,-11 -14,-19 -24,-24 -10,-6 -28,-8 -57,-8z"/>
    <path id="46" class="fil4" d="M10457 15129l0 272c0,19 -4,33 -11,43 -7,10 -16,15 -27,15 -12,0 -21,-5 -28,-15 -6,-10 -10,-24 -10,-43l0 -269c0,-19 4,-33 10,-42 7,-10 16,-15 28,-15 11,0 20,5 27,15 7,9 11,22 11,39zm-38 -97c-10,0 -19,-4 -27,-12 -7,-8 -11,-20 -11,-35 0,-13 4,-24 12,-32 7,-9 16,-13 26,-13 10,0 19,4 26,11 8,8 12,20 12,34 0,15 -4,26 -11,34 -8,8 -16,13 -27,13z"/>
    <path id="47" class="fil4" d="M10743 15405l0 -10c-10,15 -20,27 -30,36 -10,9 -21,16 -33,21 -11,4 -24,7 -38,7 -18,0 -34,-5 -50,-15 -15,-9 -29,-23 -40,-41 -11,-17 -20,-38 -26,-62 -5,-24 -8,-50 -8,-78 0,-59 11,-105 34,-137 23,-33 54,-50 92,-50 22,0 40,5 55,14 15,9 30,24 44,43l0 -139c0,-19 3,-34 9,-44 6,-10 15,-15 27,-15 11,0 20,5 26,14 6,9 9,23 9,40l0 416c0,18 -3,31 -10,40 -6,9 -15,14 -25,14 -11,0 -19,-5 -26,-14 -7,-10 -10,-23 -10,-40zm-149 -139c0,26 3,48 9,66 7,18 15,31 27,40 11,9 23,14 36,14 13,0 25,-5 36,-13 11,-9 20,-22 27,-40 6,-18 10,-40 10,-67 0,-25 -4,-46 -10,-64 -7,-18 -16,-32 -27,-42 -11,-9 -23,-14 -37,-14 -14,0 -26,5 -37,15 -11,10 -19,24 -25,42 -6,18 -9,39 -9,63z"/>
    <path id="48" class="fil4" d="M10965 14993l0 139c9,-13 19,-24 28,-32 9,-8 19,-15 30,-19 11,-4 23,-6 36,-6 19,0 36,5 51,16 15,10 27,24 35,44 6,11 9,24 11,38 2,14 3,30 3,48l0 180c0,19 -3,33 -10,43 -7,10 -17,15 -28,15 -25,0 -38,-19 -38,-58l0 -159c0,-30 -3,-53 -10,-69 -8,-17 -21,-25 -42,-25 -13,0 -25,5 -36,15 -11,9 -19,22 -24,39 -4,14 -6,39 -6,75l0 124c0,19 -4,33 -11,43 -6,10 -16,15 -28,15 -25,0 -37,-19 -37,-58l0 -408c0,-19 3,-34 10,-43 6,-10 16,-15 27,-15 12,0 22,5 28,15 7,10 11,24 11,43z"/>
    <path id="49" class="fil4" d="M11518 15267c0,28 -4,54 -11,78 -7,23 -17,44 -30,61 -13,17 -29,30 -48,39 -18,9 -39,14 -62,14 -23,0 -44,-5 -62,-14 -19,-9 -35,-23 -48,-40 -13,-17 -24,-37 -31,-60 -7,-24 -10,-50 -10,-78 0,-28 3,-55 10,-78 8,-24 18,-44 31,-61 13,-17 29,-30 48,-39 18,-9 39,-14 62,-14 22,0 43,5 62,14 19,9 35,23 48,40 13,17 24,37 31,60 6,24 10,50 10,78zm-76 0c0,-38 -7,-68 -21,-90 -13,-21 -32,-32 -54,-32 -15,0 -28,5 -40,15 -11,9 -20,23 -26,42 -6,19 -9,40 -9,65 0,25 3,46 9,65 6,18 15,32 26,42 11,10 24,15 40,15 22,0 41,-11 54,-33 14,-21 21,-51 21,-89z"/>
    <path id="50" class="fil4" d="M11728 15396l0 -398c0,-21 4,-37 12,-47 7,-10 17,-16 29,-16 13,0 23,6 30,16 8,10 12,26 12,47l0 398c0,21 -4,37 -12,47 -7,10 -17,16 -30,16 -12,0 -21,-6 -29,-16 -8,-11 -12,-26 -12,-47z"/>
    <path id="51" class="fil4" d="M11898 15401l0 -408c0,-19 3,-33 10,-43 7,-10 16,-15 27,-15 12,0 21,5 28,15 7,9 10,24 10,43l0 408c0,19 -3,34 -10,43 -7,10 -17,15 -28,15 -11,0 -20,-5 -27,-15 -7,-10 -10,-24 -10,-43z"/>
    <path id="52" class="fil4" d="M12244 15406c-19,17 -37,31 -54,39 -17,9 -36,14 -57,14 -20,0 -37,-5 -52,-15 -14,-9 -26,-22 -34,-39 -8,-16 -12,-34 -12,-53 0,-25 7,-47 20,-66 13,-18 31,-30 54,-36 5,-2 17,-5 36,-9 19,-5 36,-10 49,-14 14,-4 29,-9 44,-14 0,-25 -4,-44 -12,-55 -7,-12 -21,-18 -44,-18 -19,0 -34,4 -43,10 -10,7 -18,17 -25,31 -7,13 -12,22 -15,26 -3,4 -9,6 -19,6 -8,0 -15,-3 -22,-10 -6,-7 -9,-15 -9,-26 0,-17 5,-33 14,-48 10,-16 24,-29 44,-39 20,-10 45,-15 75,-15 33,0 60,5 79,14 19,10 32,26 40,47 8,21 12,49 12,84 0,22 0,41 0,56 0,16 0,33 -1,52 0,18 3,36 8,55 4,19 7,32 7,37 0,10 -4,19 -11,27 -8,8 -16,12 -25,12 -8,0 -16,-5 -23,-14 -8,-9 -16,-22 -24,-39zm-6 -137c-11,5 -27,11 -48,16 -21,6 -36,10 -44,13 -8,2 -16,8 -23,15 -8,8 -11,19 -11,33 0,14 4,26 13,36 8,10 20,15 34,15 15,0 29,-4 41,-12 13,-8 22,-19 28,-32 7,-14 10,-38 10,-70l0 -14z"/>
    <path id="53" class="fil4" d="M12464 14993l0 139c9,-13 19,-24 28,-32 9,-8 19,-15 30,-19 12,-4 24,-6 36,-6 20,0 37,5 52,16 14,10 26,24 35,44 5,11 9,24 11,38 1,14 2,30 2,48l0 180c0,19 -3,33 -10,43 -7,10 -16,15 -28,15 -25,0 -37,-19 -37,-58l0 -159c0,-30 -4,-53 -11,-69 -7,-17 -21,-25 -41,-25 -14,0 -26,5 -37,15 -11,9 -19,22 -24,39 -4,14 -6,39 -6,75l0 124c0,19 -4,33 -10,43 -7,10 -16,15 -28,15 -25,0 -38,-19 -38,-58l0 -408c0,-19 3,-34 10,-43 7,-10 16,-15 28,-15 12,0 21,5 28,15 6,10 10,24 10,43z"/>
    <path id="54" class="fil4" d="M12809 15129l0 272c0,19 -4,33 -11,43 -7,10 -16,15 -27,15 -11,0 -20,-5 -27,-15 -7,-10 -11,-24 -11,-43l0 -269c0,-19 4,-33 11,-42 7,-10 16,-15 27,-15 11,0 20,5 27,15 7,9 11,22 11,39zm-37 -97c-11,0 -20,-4 -27,-12 -8,-8 -12,-20 -12,-35 0,-13 4,-24 12,-32 8,-9 16,-13 27,-13 9,0 18,4 26,11 7,8 11,20 11,34 0,15 -4,26 -11,34 -7,8 -16,13 -26,13z"/>
    <path class="fil5" d="M5902 8833l636 0 138 -569c19,-78 28,-137 28,-178 0,-40 -11,-70 -34,-92 -23,-21 -78,-35 -167,-42l15 -52 860 0 -14 52c-84,0 -148,22 -192,64 -43,42 -81,126 -111,251l-319 1300c-21,85 -32,147 -32,183 0,37 12,65 35,84 29,26 84,40 162,42l-13 52 -843 0 19 -52c82,0 142,-19 181,-56 39,-38 75,-123 107,-255l148 -603 -632 0 -148 605c-22,83 -33,145 -33,185 0,35 13,65 40,87 25,23 77,35 154,37l-13 52 -832 0 14 -52c82,0 142,-19 180,-56 38,-38 73,-123 105,-255l319 -1301c18,-75 28,-134 28,-177 0,-41 -11,-71 -34,-93 -23,-21 -77,-35 -162,-42l14 -52 845 0 -19 52c-78,0 -137,20 -178,60 -40,40 -76,125 -110,254l-142 567z"/>
    <path id="1" class="fil5" d="M8154 7900l129 1396 825 -1396 609 0 -15 52c-84,0 -147,21 -191,63 -43,42 -80,125 -111,249l-319 1300c-21,83 -31,144 -31,185 0,37 13,68 38,90 26,23 76,35 151,37l-11 52 -865 0 15 -52c93,0 161,-21 206,-63 45,-42 82,-124 113,-249l323 -1317 -991 1681 -54 0 -156 -1714 -332 1350c-14,56 -20,102 -20,139 0,51 14,92 44,122 29,31 79,48 150,51l-13 52 -573 0 12 -52c69,-3 122,-20 158,-51 65,-57 112,-144 141,-261l374 -1501c-36,-46 -68,-76 -96,-90 -29,-14 -77,-21 -144,-21l15 -52 619 0z"/>
    <path id="2" class="fil5" d="M9894 7900l690 0c154,0 264,10 330,29 86,24 153,70 201,140 48,69 72,147 72,236 0,71 -20,145 -58,219 -38,75 -95,137 -171,185 -76,49 -193,94 -350,134 164,53 278,121 341,203 64,83 96,179 96,289 0,102 -31,204 -92,304 -62,100 -143,173 -245,220 -102,46 -288,69 -559,69l-724 0 17 -52c70,0 120,-7 150,-22 31,-16 55,-38 73,-70 19,-32 40,-98 65,-198l306 -1247c31,-128 48,-214 48,-258 0,-35 -13,-64 -38,-88 -26,-23 -80,-37 -165,-41l13 -52zm394 896c114,-2 205,-23 271,-64 66,-40 119,-107 159,-200 40,-93 60,-180 60,-263 0,-77 -21,-140 -62,-189 -42,-48 -97,-72 -166,-70l-70 3 -192 783zm-28 114l-221 902c42,2 73,3 94,3 189,0 320,-62 393,-186 74,-124 110,-257 110,-399 0,-68 -14,-128 -42,-181 -29,-52 -66,-88 -110,-109 -44,-20 -119,-30 -224,-30z"/>
   </g>
   <path class="fil6" d="M7922 4497l10 -34 -200 -22c-75,-66 -94,19 -213,-48 -75,-42 -134,-24 -225,-28l20 -90c253,-11 246,16 533,-19 79,-10 107,-8 135,-74 -64,-35 -27,-9 -61,-7 -71,-50 -293,-82 -383,-70 -151,21 31,54 -403,73 -179,8 -965,161 -1136,253 -53,29 -95,74 -140,94 -59,25 -107,32 -170,66 -97,53 -563,271 -571,339 -269,70 -402,227 -564,376l-361 341c-42,28 -96,81 -110,129 -69,33 -55,66 -108,119 -98,97 -38,58 -70,165 -19,60 -156,202 -196,253 -86,109 -156,87 -237,220 -52,86 -140,227 -151,326 -15,61 -47,147 -70,207 -36,94 -77,104 -126,178 -54,84 -45,145 -67,238 -21,93 -64,151 -70,250l5 40c-54,44 -74,194 -72,255 -70,99 -108,754 -94,897 12,127 66,18 39,444 -12,186 -44,243 29,432 43,111 39,299 101,396 65,102 87,-2 183,311 42,138 93,221 149,346 33,76 30,91 86,160 58,72 36,123 115,166 32,64 57,128 101,185 38,50 38,25 63,82 63,146 23,18 128,179 45,69 31,11 24,100 -8,108 75,90 101,168 30,109 76,103 127,177 54,78 41,129 165,116 3,63 32,50 86,102 138,128 197,159 304,254 157,139 112,78 218,147 84,56 116,129 234,150 48,7 264,161 356,190 36,52 89,103 151,124 61,21 162,67 221,65 28,53 11,29 74,55 23,9 48,22 72,31 84,32 106,6 195,18 73,15 150,56 224,80 78,26 155,49 235,73 121,37 375,98 497,101l58 41c17,14 17,17 39,32 171,107 896,130 983,78 21,0 120,-9 142,-13 60,-10 51,-30 75,-63 137,-10 164,20 291,26 191,-14 225,-47 323,-65 108,-21 95,55 233,13 34,-10 34,-8 73,-18 68,-16 53,-36 130,-56 112,-30 366,-86 411,-138 60,12 177,-46 212,-100l-72 -34c29,-16 127,-71 146,-91 47,-51 29,-75 115,-109 224,-23 650,-188 719,-411 12,-3 63,-29 90,-39 18,-6 35,-12 52,-21 41,-23 9,0 42,-30 112,13 544,-447 637,-546 51,-63 121,-130 149,-201 54,-19 360,-445 404,-520 51,-88 133,-205 173,-293 23,-50 126,-299 143,-316 71,-18 77,-108 105,-164 14,-31 40,-55 51,-78l176 -576c6,-56 4,-59 18,-112 75,-293 15,-342 46,-456 16,-57 51,-146 63,-197 13,-60 3,-172 4,-239 3,-159 -274,-690 -300,-761 -6,-49 -16,-96 -34,-133 -22,-45 -69,-162 -78,-207 -85,-83 -17,-113 -113,-154 -7,113 5,270 53,349l100 289 30 302 -44 -30 -7 28 -64 20 8 241 -4 -117 -79 0c-1,8 -3,16 -5,25 -29,91 -67,-5 -69,176 -1,122 28,366 -29,464l20 -232 -1 -103 -8 -196 -9 -250 12 -61c52,62 34,121 58,186 30,-78 -14,-222 -17,-312l-16 -126c-15,-92 -98,-172 -158,-245 -24,-87 -17,-161 -40,-251 -14,-54 -70,-166 -67,-206 -27,-22 -35,-26 -48,-67 -7,-22 -7,-46 -14,-72 -15,-51 -42,-74 -60,-114 -45,-97 -26,-137 -101,-236 -34,-14 -157,-107 -177,-143 -27,-46 -16,-57 -58,-104 -40,-45 -45,-30 -71,-88 -86,-96 -142,-122 -155,-253l-41 -50c-22,-113 -98,-211 -2,-246l55 -17 -19 -53c-22,-47 -46,-50 -59,-74 -26,-118 -48,-93 -137,-141 -50,-28 -88,-80 -138,-116l-50 -30c-123,-72 -124,-185 -221,-185 -32,53 -39,55 -38,122 70,45 70,-28 83,58 -37,22 -177,26 -222,-6 -52,-16 -44,-14 -68,-58l-151 -74 -3 -33c-52,-38 -17,-92 -93,-159 -104,-5 -23,52 -170,4 -163,-53 -228,-111 -299,-136 -102,-36 -101,-15 -104,-118 -135,-17 28,-35 -306,-43 -124,-9 -121,-70 -267,-75 -116,-4 -201,12 -299,-24 -95,-36 -209,-17 -313,-22 -98,-5 -193,-25 -295,-15 15,17 -5,3 25,17l226 52c397,47 468,115 772,183l48 37 -48 -2c-193,-58 -342,-78 -537,-117 -98,-19 -183,-26 -283,-34 -53,-4 -249,-62 -256,-7l21 15c94,62 306,1 328,114l-21 8c-65,13 -290,12 -344,-3 -41,-12 -42,-31 -94,-5 12,130 304,126 352,132 42,6 86,24 126,36 142,43 45,-31 245,78 95,52 172,4 172,159 -189,7 -111,-52 -318,-71 -120,-11 -213,-64 -328,-77 -190,-21 -576,-7 -759,26 -105,-176 -271,-43 -447,-38 -116,4 -134,12 -232,47 -80,29 -165,31 -247,53 -85,22 -38,25 -192,86 -76,30 -119,63 -204,91 -107,34 -98,8 -195,81 -75,55 -148,66 -158,148l-24 65 -119 73c-149,29 -258,143 -355,246 -98,105 -259,169 -296,303 -83,66 -262,269 -285,369 -54,24 -127,139 -130,200 -79,34 -103,135 -162,210 -35,43 -81,187 -101,249 -45,30 -11,-8 -41,44 -24,43 -37,149 -48,183 -14,43 -92,119 -123,186 -44,97 -23,176 -25,277 -1,89 -54,88 -61,243 -8,182 -40,400 -3,579 45,216 -13,288 66,509 49,134 98,335 155,454 26,53 115,270 150,301 53,46 45,3 69,90 34,115 53,99 118,190 40,56 90,184 107,198 83,72 25,-41 146,161 40,67 102,109 176,132 7,76 136,143 193,200 23,24 202,143 236,160 100,52 444,258 525,268l270 105c20,24 306,115 363,148 163,95 213,96 405,128 234,38 755,99 977,50l426 -39 189 -31 222 -37c118,20 154,-23 254,-48 57,-14 97,-3 140,-13 40,-9 28,-24 91,-51 38,-17 69,-22 104,-44 25,-16 57,-48 88,-61 84,-35 213,50 225,-36 42,-7 69,-23 106,-42 58,-29 61,-24 94,-72 99,1 680,-454 726,-539 48,-16 164,-143 209,-192 38,-41 17,-14 35,-50 44,-25 58,-81 119,-115 -21,90 -30,15 -30,88 60,2 55,-18 104,-53l42 -2 -4 53 9 1c-49,36 -132,158 -155,206 17,24 -6,6 24,16l104 5c-194,291 -65,85 -172,182 -36,33 -37,85 -80,138 -29,35 -35,34 -60,70 -27,41 -27,48 -63,85 -91,92 -71,66 -206,73l-26 89 -143 104 -100 54c-81,17 -116,73 -178,109 -25,15 -154,90 -176,94 -26,5 -222,99 -270,120 -55,23 -84,32 -139,51 -133,47 -97,54 -110,101 67,0 444,-96 577,-52 -8,31 13,12 -66,55 -53,28 -43,14 -79,56l-349 126 -49 31c14,34 41,41 63,64 -93,34 -163,76 -265,102l-225 56c-64,26 -19,-7 -65,41 -111,6 -252,35 -368,49 -126,16 -256,20 -379,36 -299,40 -483,35 -785,23 -28,-12 -237,-19 -311,-33 -98,-19 -211,-25 -316,-41 -359,-58 -418,-164 -526,-163 -32,-40 -285,-127 -354,-155 -73,-29 -120,-36 -191,-58 -94,-30 -55,-72 -150,-80 -45,-45 -139,-44 -200,-73l-63 -24c-44,-50 -38,-24 -94,-53 -47,-25 -163,-132 -299,-203 -108,-57 -47,-107 -205,-169 -23,-62 -133,-105 -192,-149 -143,-108 -417,-554 -472,-579 -51,-61 -69,-101 -132,-158 -68,-63 -56,-110 -98,-178 -119,-196 -33,-64 -87,-190 -28,-64 -64,-138 -131,-162l-7 -49c1,-153 -35,-202 -106,-313 -38,-62 -3,-19 -48,-43 -72,-71 -88,-317 -119,-370 -92,-157 -58,-249 -78,-427 -28,-258 -29,-180 -30,-474 -1,-166 -1,-336 5,-502 8,-92 34,-173 51,-263 11,-61 45,-224 44,-274 128,-93 137,-109 193,-276l122 -338c12,-35 26,-86 42,-118 31,-66 43,-39 57,-118 3,-35 136,-203 155,-253 69,-31 278,-381 330,-468 57,-97 10,6 147,-127 109,-76 237,-248 339,-323 73,-54 107,-94 170,-152 178,-164 362,-222 497,-325 61,-47 188,-180 293,-216 43,-16 87,-20 133,-32 53,-14 75,-37 124,-45 129,-6 197,-76 283,-126 116,-69 -74,-27 270,-126 53,-16 53,-19 113,-23l480 -69c153,-40 276,-37 289,-157l0 -21c2,-28 0,-13 4,-30 11,-49 46,-32 -13,-85 94,-2 248,5 325,-31zm2137 1858l1 14c59,88 153,59 208,126 41,100 -5,54 75,157 67,87 53,75 174,79 25,38 23,80 89,86 49,3 119,-6 180,-2 105,124 36,213 117,359 59,107 22,68 118,130 62,40 45,122 78,172 335,0 265,-30 294,176 15,110 -8,83 -27,169 -20,88 17,256 51,337 129,17 164,-47 162,106 -68,43 -70,-12 -100,107 -23,89 -22,81 -15,178l20 1c18,225 -25,183 -42,275 -22,120 14,393 -16,474 -25,66 -33,25 -43,126 -9,97 -58,213 -36,306l4 53c-49,102 -51,209 -114,321l-88 -5c-41,57 -60,139 -105,205 -44,66 -84,128 -126,194 -86,132 -196,239 -268,355l-66 91c-85,38 -330,295 -431,366 -405,285 -872,509 -1370,586 -84,13 -286,9 -336,58l-100 0 -404 5c-237,-7 -421,-26 -646,-82 -89,-22 -503,-158 -544,-154 -38,-43 -136,-64 -195,-94 -54,-28 -129,-75 -177,-95 -43,-26 -169,-95 -212,-96 -26,-34 -125,-95 -162,-92 -40,-70 -37,-35 -86,-79 -49,-43 -22,-42 -91,-72l-32 -35c-17,-43 -2,-20 -27,-51 0,0 -26,-26 -29,-28 -35,-34 -34,-41 -81,-54l-68 -39c-29,-57 -36,-36 -72,-81 -53,-70 -129,-142 -188,-207 -33,-37 -53,-77 -87,-117 -92,-109 -158,-235 -222,-362 -22,-45 -49,-82 -66,-122 -25,-59 -20,-70 -65,-110l-114 -418c-1,-53 -41,-168 -53,-234 -16,-93 -40,-173 -44,-271 -7,-197 -7,-416 1,-614 2,-57 87,-348 111,-420 42,-126 137,-275 166,-386 43,-45 96,-145 135,-200 25,-36 45,-81 65,-110 31,-43 56,-53 75,-105 79,-30 104,-36 153,-107 43,-61 97,-100 130,-146l44 -36 366 -300c84,-60 336,-222 419,-236 164,22 485,-171 646,-257 66,-35 116,-91 173,-136 88,-70 127,-21 157,-138 78,-310 394,-142 732,-163 101,-22 212,14 317,12 88,-2 64,-19 134,-27 259,-30 282,83 391,123 91,33 182,19 274,68 128,68 126,47 250,90 64,22 50,35 97,63 39,23 82,29 124,55 51,32 29,35 95,64 179,79 274,181 322,194zm2513 3032c0,-3 2,-10 16,-3 -14,-7 -16,0 -16,3zm16 -3c1,0 2,1 3,1 -1,0 -2,-1 -3,-1z"/>
  </g>
 </g>
</svg>
